<ttFont>
          <CharString index="0">
            rmoveto
            -359 -284 -299 -414.99000549316406 -237.02000427246094 124 -220.97000122070312 309 260 184 148.99000549316406 84.99000549316406 59 hvcurveto
            -92 171 rlineto
            -65 -49 178 callsubr
            -98 152 callsubr
            hhcurveto
            -96 callgsubr
            vhcurveto
            -4 -297 rmoveto
            -161 -150 -130 -118 -7 vhcurveto
            140 3 63 259.02000427246094 127 hhcurveto
            53 22 -31.009994506835938 -70 hvcurveto
            endchar
          </CharString>
          <CharString index="1">
            rmoveto
            -320 hlineto
            -50 1 -54 -3.9900054931640625 -58 vhcurveto
            -18 -274.97999572753906 -19 -86.02000427246094 -62 -179 -42 -133 -39 -90.99000549316406 -37 -76 133 callgsubr
            316.99000549316406 rcurveline
            -74 685.0200042724609 rlineto
            -352.00999450683594 hlineto
            43 callsubr
            -785.0200042724609 56 -374.97999572753906 rlineto
            206 hlineto
            -179 -116.02000427246094 -59 callgsubr
            -59.99000549316406 -117 hhcurveto
            -54 -75 29.990005493164062 31 -44.970001220703125 hvcurveto
            -89 -244 rlineto
            -35 59 91.97000122070312 -40 109.02000427246094 hhcurveto
            276.99000549316406 -67 callsubr
            169 199.99000549316406 146.99000549316406 hvcurveto
            82 112 101 164 86 203.97999572753906 rrcurveto
            83 196 65.99000549316406 222.99000549316406 236 vvcurveto
            -42 callgsubr
            -91 callgsubr
            55 -4.0099945068359375 20.009994506835938 vhcurveto
            endchar
          </CharString>
          <CharString index="2">
            843 36 callsubr
            278 callsubr
            -227 16 callgsubr
            2085.990005493164 -387 100 callgsubr
            hintmask 00000000
            hintmask 11001010
            1809 63 callsubr
            hintmask 11100010
            -39 callgsubr
            143 -47 callgsubr
            91 111 2 hvcurveto
            hintmask 11001010
            35 callgsubr
            170 callgsubr
            hhcurveto
            -123.99000549316406 -64 callsubr
            hintmask 11010100
            -1572 -87 callsubr
            57 86 callgsubr
            -69 -86 callsubr
            122 hlineto
            764.9900054931641 hmoveto
            46 callgsubr
            133.97999572753906 978 vhcurveto
            187 hlineto
            227 callgsubr
            266 callsubr
            28 -2 callsubr
            24 134 50.02000427246094 20 -16 callgsubr
            1 rlinecurve
            57 0.9900054931640625 48 86 callgsubr
            -60 -25 callsubr
            122 hlineto
            764.0099945068359 216 -95 callsubr
            endchar
          </CharString>
          <CharString index="3">
            40.96000671386719 return
          </CharString>
          <CharString index="4">
            -468.00999450683594 -235 -375.00999450683594 -368.99000549316406 -230 84 -197.97999572753906 252 return
          </CharString>
          <CharString index="5">
            rmoveto
            90 callsubr
            -280 rlineto
            -29.990005493164062 -8 callgsubr
            159 -38.99000549316406 134 hhcurveto
            238 236 52 callsubr
            264 134 -38 callsubr
            76 -134 103 hvcurveto
            hintmask 11011000
            -106 92 -59.99000549316406 25.009994506835938 69 vvcurveto
            42 -50 callgsubr
            -50 callgsubr
            88 97 102.00999450683594 -51 -42 callsubr
            37 vhcurveto
            hintmask 10101000
            -8 callgsubr
            298.99000549316406 rlineto
            hintmask 11011000
            11 -28 -129 -38 callgsubr
            -110 hhcurveto
            -280 -183 -127 -205 -147 73.02000427246094 -92 callgsubr
            80 -68.02000427246094 hvcurveto
            hintmask 11001000
            93 109 callsubr
            115 -57 99 callsubr
            vvcurveto
            -59 callgsubr
            -65.99000549316406 -16.020004272460938 73 callsubr
            -92 callgsubr
            -144 62 -8 callgsubr
            -39.02000427246094 vhcurveto
            endchar
          </CharString>
          <CharString index="6">
            rmoveto
            -119.99000549316406 -287.99000549316406 rlineto
            -37 45.97999572753906 71 callgsubr
            69 callsubr
            2 148 callgsubr
            rrcurveto
            71 0.9900054931640625 56.02000427246094 66.00999450683594 129 hhcurveto
            -41 callgsubr
            112 -41 -46 46 hvcurveto
            112 280.97999572753906 rlineto
            37 -52 -134 48 -175 hhcurveto
            -322 -211.99000549316406 -178 -279 -186 134 -142.99000549316406 122 -92 hvcurveto
            144 -21 callgsubr
            46 -51 -2 -88 rrcurveto
            -84.99000549316406 -91 callgsubr
            -51.02000427246094 -68 -151 hhcurveto
            101 callgsubr
            -129 52 48.99000549316406 -63 hvcurveto
            endchar
          </CharString>
          <CharString index="7">
            259 callsubr
            -76 callgsubr
            -65 -11.020004272460938 -96.99000549316406 -13.990005493164062 -116 -21.009994506835938 -174 -29 -201 -3 callsubr
            -134.97999572753906 rrcurveto
            -33 callsubr
            67 callsubr
            121 -24 callgsubr
            7 callgsubr
            25 183 return
          </CharString>
          <CharString index="8">
            186 165 -86 -36 47 hvcurveto
            74 322 -95 33 rlineto
            21.009994506835938 -64 -115 35 -190 hhcurveto
            -450 -361 -379 -560 1 hvcurveto
            -299.99000549316406 -1 148.99000549316406 -322.97999572753906 455 hhcurveto
            184 151.99000549316406 41.97999572753906 30 106 hvcurveto
            57 16 -38 callgsubr
            4 25.990005493164062 3 107 770.9900054931641 rcurveline
            -576 hlineto
            133 callgsubr
            -279.97999572753906 rlineto
            return
          </CharString>
          <CharString index="9">
            rmoveto
            -359 -262 -294.00999450683594 -419.99000549316406 -217 105 -240.97999572753906 309 229.99000549316406 134 115.97000122070312 85.02000427246094 56 hvcurveto
            -41 callsubr
            148 callsubr
            rlineto
            -47.99000549316406 -43 -107.99000549316406 -38 callsubr
            -61 callgsubr
            hhcurveto
            5 callsubr
            -33 83 174 261 132 callsubr
            134 callsubr
            121.02000427246094 -42 callgsubr
            102.00999450683594 -88 -19 190 callgsubr
            return
          </CharString>
          <CharString index="10">
            rmoveto
            -481.02000427246094 -331 -423.02000427246094 -499 -317.99000549316406 141 callgsubr
            -321.97999572753906 417 217 188.99000549316406 95.97999572753906 -11 callgsubr
            42 hvcurveto
            -46 249 rlineto
            -42 callsubr
            -52 -127 -52 -129 hhcurveto
            -198 -77 115 239 304 43 callsubr
            318 291 callsubr
            150 96.00999450683594 -70 -36 41 hvcurveto
            56 callgsubr
            335.00999450683594 -53 13.990005493164062 rlineto
            21.009994506835938 -51 -94 35 -153.99000549316406 hhcurveto
            endchar
          </CharString>
          <CharString index="11">
            -103 callsubr
            165.99000549316406 108.00999450683594 141.97999572753906 122 72 callsubr
            return
          </CharString>
          <CharString index="12">
            25 callsubr
            -33 callsubr
            -22 callgsubr
            -358.99000549316406 hlineto
            return
          </CharString>
          <CharString index="13">
            -15.990005493164062 return
          </CharString>
          <CharString index="14">
            rmoveto
            -80 callgsubr
            -70 callsubr
            return
          </CharString>
          <CharString index="15">
            78 36 callsubr
            278 callsubr
            -227 16 callgsubr
            1321 -387.02000427246094 152 callgsubr
            hintmask 00000000
            hintmask 11001010
            1043.990005493164 63 callsubr
            hintmask 11100010
            -39 callgsubr
            143 -12 callsubr
            91 111 2 hvcurveto
            hintmask 11001010
            -55 callgsubr
            hintmask 11010100
            -807 -87 callsubr
            47 32 callgsubr
            169 callgsubr
            238 rlineto
            hintmask 11010100
            22 -54 -58.97999572753906 -86 callsubr
            122 hlineto
            763.9900054931641 216 rmoveto
            -156 -1140 118 callsubr
            -22 callgsubr
            -359.00999450683594 hlineto
            endchar
          </CharString>
          <CharString index="16">
            0 -89 callgsubr
            return
          </CharString>
          <CharString index="17">
            rmoveto
            -96 callgsubr
            -105 -98 -23 -43 -86 vhcurveto
            37 -61.99000549316406 -97.02000427246094 29 -105 hhcurveto
            -502.99000549316406 -250 -375.00999450683594 -368.99000549316406 -230 74 -197.97999572753906 252 172 119 162.97000122070312 147 64 hvcurveto
            -173 151 callsubr
            129 -136.99000549316406 243 hhcurveto
            260.00999450683594 184 148.99000549316406 84.99000549316406 59 hvcurveto
            -92 171 rlineto
            -65 -49 -147 -98 -127 hhcurveto
            hintmask 01011100
            43 734 rmoveto
            53 22 -31.009994506835938 -70 -161 -150 -130 -118 -7 hvcurveto
            140 3 63 259.02000427246094 127 hhcurveto
            -555.0099945068359 -382.02000427246094 rmoveto
            -170 -35.97999572753906 -116.02000427246094 -162 -69 hhcurveto
            -59.99000549316406 -19 51 136 hvcurveto
            hintmask 10101100
            241 115 272 241 26.990005493164062 33 -3 -8.990005493164062 34.02000427246094 vhcurveto
            hintmask 01011100
            -76 -93 -53 -120 -21.020004272460938 -143 rrcurveto
            endchar
          </CharString>
          <CharString index="18">
            -85 -589.9900054931641 129 callsubr
            589.9900054931641 599.9900054931641 940.0099945068359 rlineto
            -392.99000549316406 hlineto
            -284 -525 -58 -134 -25 134 -141 525 rlineto
            -372 hlineto
            return
          </CharString>
          <CharString index="19">
            4 -27 -27.009994506835938 2 -26 callgsubr
            -63 callsubr
            180 111 166.99000549316406 128 52 hvcurveto
            return
          </CharString>
          <CharString index="20">
            -555.9900054931641 -93 callsubr
            return
          </CharString>
          <CharString index="21">
            -50 callsubr
            -36 hvcurveto
            -18.990005493164062 -105 rlineto
            -111 hlineto
            -41 -216 rlineto
            return
          </CharString>
          <CharString index="22">
            rmoveto
            hintmask 01100100
            -65 callsubr
            hintmask 10100100
            4 callsubr
            hvcurveto
            hintmask 01010100
            49 callsubr
            vhcurveto
            1104 -1190.009994506836 rmoveto
            hintmask 01001100
            742.0099945068359 1088 rlineto
            hintmask 01100100
            -23 86.02000427246094 rlineto
            -976 hlineto
            -46.02000427246094 -285 587.0200042724609 10 -93 -38 callsubr
            -774 -1099 27 237 callgsubr
            1043 hlineto
            47 291.97999572753906 -618 -10 rlineto
            hintmask 01010100
            -34 callsubr
            74 rlineto
            hintmask 10010100
            -1319 5 callsubr
            26 callsubr
          </CharString>
          <CharString index="23">
            rmoveto
            -219 -22 callsubr
            219 264 callsubr
            -97 -792 -13 -260.02000427246094 73 callsubr
            260.02000427246094 -355.99000549316406 792 rlineto
            -307.02000427246094 hlineto
            return
          </CharString>
          <CharString index="24">
            165 callsubr
            -54 89 callgsubr
            14.009994506835938 -40 hvcurveto
            144 1007 rlineto
            8.009994506835938 40 71 5 42 hhcurveto
            199 90.99000549316406 -70 -278.02000427246094 -377 -137 -316.97999572753906 -295 hvcurveto
            return
          </CharString>
          <CharString index="25">
            -19 41 131 -26 callgsubr
            99 hhcurveto
            283 313 111 callsubr
            392.00999450683594 54 hvcurveto
            164 1184.990005493164 return
          </CharString>
          <CharString index="26">
            87 -14 258.99000549316406 428 251 362.989990234375 245 hstem
            1063.990005493164 -11 callsubr
            vstem
            846.9900054931641 1547.979995727539 rmoveto
            -92 -210 -16 223 callsubr
            hhcurveto
            -156 hlineto
            -87 -607.9900054931641 rlineto
            -163 hlineto
            168 callsubr
            -251 rlineto
            151.99000549316406 301 callgsubr
            -671 rlineto
            144 hlineto
            63 77 -4.9799957275390625 -4.0099945068359375 69 hvcurveto
            -4 56 51 -3 -50 callgsubr
            hhcurveto
            574.0099945068359 272 452.99000549316406 495 364.99000549316406 281 callgsubr
            -61 -53.99000549316406 8 14.009994506835938 -40 hvcurveto
            58 406 rlineto
            303.97999572753906 hlineto
            -38 callgsubr
            251 rlineto
            -294.00999450683594 hlineto
            50 350 rlineto
            89 callgsubr
            40 71 5 41.99000549316406 hhcurveto
            199 91.02000427246094 -70 -278 -377 -137 -317.00999450683594 -295 hvcurveto
            endchar
          </CharString>
          <CharString index="27">
            -6 -1 -69 callsubr
            return
          </CharString>
          <CharString index="28">
            -170 -94 callsubr
            213.97999572753906 744.0000152587891 157 callsubr
            return
          </CharString>
          <CharString index="29">
            rmoveto
            -59.99000549316406 -29 69 136 241 99.99000549316406 272 206 29 25 -3 -6 22 hvcurveto
            -44 -316.99000549316406 rlineto
            -141 -39 -105 -251 -105 hhcurveto
            endchar
          </CharString>
          <CharString index="30">
            1.9900054931640625 return
          </CharString>
          <CharString index="31">
            -80 callsubr
            164 callgsubr
            -123 196 callgsubr
            hintmask 01101011
            891.9900054931641 1765.990005493164 rmoveto
            -5 callsubr
            hintmask 01101101
            213 callgsubr
            hintmask 01101011
            139 callsubr
            286.99000549316406 167 rlineto
            47 -1766.990005493164 rmoveto
            355 1 -227 -24 callsubr
            -450 hlineto
            hintmask 10101011
            -64 callgsubr
            hintmask 01101011
            -53 callgsubr
            hintmask 01110011
            -82 callgsubr
            hintmask 01101011
            76 callgsubr
          </CharString>
          <CharString index="32">
            69.97999572753906 372.02000427246094 return
          </CharString>
          <CharString index="33">
            -94 callsubr
            264.99000549316406 320.99000549316406 83 callsubr
            407.00999450683594 289.00999450683594 return
          </CharString>
          <CharString index="34">
            -82 -516.9900054931641 111 callgsubr
            -208.97999572753906 43 457.989990234375 19 callsubr
            return
          </CharString>
          <CharString index="35">
            -1 -1 1 8 rlineto
            hintmask 10100100
            16 228 rlineto
            -344 hlineto
            -156 -1140 118 callsubr
            hintmask 11000100
            -41 callgsubr
            721.9799957275391 2 -76 callgsubr
            rlineto
            169 callgsubr
            89 callsubr
            64 -38 callgsubr
            87 hhcurveto
            32.99000549316406 53 -8 -18 14 hvcurveto
            hintmask 10010100
            63 361 rlineto
            hintmask 10001100
            7 -10.020004272460938 168 callsubr
            7 -36 hhcurveto
            return
          </CharString>
          <CharString index="36">
            100 callsubr
            hlineto
            -45 -288.00999450683594 rlineto
            -25 -52 -98 -7.9900054931640625 -49 hhcurveto
            -203 return
          </CharString>
          <CharString index="37">
            28 -2 callsubr
            24 134 49.99000549316406 20 56.02000427246094 1 rlinecurve
            57 0.9900054931640625 return
          </CharString>
          <CharString index="38">
            43 -42 43 242.97999572753906 241 794 209.00999450683594 -40.959991455078125 -104 callsubr
            return
          </CharString>
          <CharString index="39">
            -59 -20 43 -23 43 -43 233.97999572753906 865.0500030517578 -104 callsubr
            return
          </CharString>
          <CharString index="40">
            90.00999450683594 return
          </CharString>
          <CharString index="41">
            64.97999572753906 353.99000549316406 339.00999450683594 358.00999450683594 return
          </CharString>
          <CharString index="42">
            -92 -210 -16 -84.99000549316406 hhcurveto
            -156.02000427246094 326 callsubr
            144 hlineto
            63.02000427246094 76.99000549316406 -5 -4 69 hvcurveto
            return
          </CharString>
          <CharString index="43">
            -61 callgsubr
            -62 callsubr
            return
          </CharString>
          <CharString index="44">
            hhcurveto
            -103 callsubr
            return
          </CharString>
          <CharString index="45">
            -92.02000427246094 286 callgsubr
            return
          </CharString>
          <CharString index="46">
            hintmask 10101000
            -29 callsubr
            hintmask 01101000
            35 119 callgsubr
            rlineto
            876.9700012207031 hlineto
            135 callgsubr
            218 callgsubr
            return
          </CharString>
          <CharString index="47">
            -12 -84.99000549316406 -9 -103.02000427246094 74 callgsubr
            vvcurveto
            -137 91 -78 144.02000427246094 198 151 90.99000549316406 65 81 vhcurveto
            return
          </CharString>
          <CharString index="48">
            -239 243 callsubr
            734 -27 callsubr
            hstem
            -47 callgsubr
            83 callgsubr
            267.99998474121094 344 vstem
            return
          </CharString>
          <CharString index="49">
            43 11 callgsubr
            1030 265.99000549316406 return
          </CharString>
          <CharString index="50">
            243.99000549316406 return
          </CharString>
          <CharString index="51">
            rmoveto
            -90 callgsubr
            354 hlineto
            return
          </CharString>
          <CharString index="52">
            rmoveto
            -218.99000549316406 137 callsubr
            return
          </CharString>
          <CharString index="53">
            13 206 rlineto
            -340.99000549316406 hlineto
            -156.02000427246094 -1140 rlineto
            357 hlineto
            return
          </CharString>
          <CharString index="54">
            182.99000549316406 -167 145 -42 callgsubr
            -211.99000549316406 235 callsubr
            return
          </CharString>
          <CharString index="55">
            -36 callgsubr
            -183 2 callsubr
            return
          </CharString>
          <CharString index="56">
            -12 -247.99000549316406 rlineto
            320 hlineto
            80 callsubr
            return
          </CharString>
          <CharString index="57">
            4 -56.02000427246094 hhcurveto
            -269.99000549316406 -184 -36 callgsubr
            -248 return
          </CharString>
          <CharString index="58">
            91.00999450683594 111 3 hvcurveto
            87 -77 callsubr
            -59 callgsubr
            74 -117 hhcurveto
            return
          </CharString>
          <CharString index="59">
            129.99000549316406 return
          </CharString>
          <CharString index="60">
            -19 callgsubr
            2 15 -77 callsubr
            14 hvcurveto
            -187.99000549316406 hlineto
            -5.0200042724609375 -18 -6.9900054931640625 221 callgsubr
            return
          </CharString>
          <CharString index="61">
            0 -57 callgsubr
            return
          </CharString>
          <CharString index="62">
            -395 -94 callsubr
            256.97999572753906 637.0000152587891 48 callsubr
            117 callsubr
            hintmask 11010000
            return
          </CharString>
          <CharString index="63">
            130 57 91 111 2 hvcurveto
            80.02000427246094 0 callgsubr
            -21 callgsubr
            -2 hvcurveto
            return
          </CharString>
          <CharString index="64">
            68.00999450683594 -212 373.99000549316406 213 callsubr
            -371 -373.99000549316406 return
          </CharString>
          <CharString index="65">
            -37.99000549316406 return
          </CharString>
          <CharString index="66">
            -88.99000549316406 return
          </CharString>
          <CharString index="67">
            13 callgsubr
            -72.00999450683594 76 -106.99000549316406 hhcurveto
            return
          </CharString>
          <CharString index="68">
            -60.99000549316406 return
          </CharString>
          <CharString index="69">
            -67.00999450683594 return
          </CharString>
          <CharString index="70">
            -99 121 46 262 234 36 68 rlinecurve
            return
          </CharString>
          <CharString index="71">
            71.99000549316406 return
          </CharString>
          <CharString index="72">
            rmoveto
            -220 -1634 118 callsubr
            222 1634 163 callsubr
            return
          </CharString>
          <CharString index="73">
            83.99000549316406 return
          </CharString>
          <CharString index="74">
            356.99000549316406 hlineto
            return
          </CharString>
          <CharString index="75">
            211 callgsubr
            28 28 -91 callgsubr
            227 callgsubr
            hhcurveto
            467.99000549316406 235 377.9700012207031 369.00999450683594 229.99000549316406 -61 callgsubr
            195 -252 hvcurveto
            -343 -962 rmoveto
            -28 -26 callgsubr
            1 270 callsubr
            -24 hvcurveto
            45 317.00999450683594 rlineto
            139 36 107.99000549316406 257 107.00999450683594 hhcurveto
            60 28 -66 -136 -240.99000549316406 -100 -275 -206 hvcurveto
            endchar
          </CharString>
          <CharString index="76">
            -4.0099945068359375 56 51 -76 callgsubr
            37 hhcurveto
            574 57 callgsubr
            32 callsubr
            198.99000549316406 91.00999450683594 -70 -278.02000427246094 -377 -137 -316.97999572753906 -295 hvcurveto
            endchar
          </CharString>
          <CharString index="77">
            -49 callsubr
            -124 17 callsubr
            return
          </CharString>
          <CharString index="78">
            -51 callgsubr
            -553.9700012207031 -790 rlineto
            return
          </CharString>
          <CharString index="79">
            -39 callsubr
            -13 callsubr
            return
          </CharString>
          <CharString index="80">
            195.99000549316406 return
          </CharString>
          <CharString index="81">
            110 callsubr
            100 hhcurveto
            143.02000427246094 2 callgsubr
            return
          </CharString>
          <CharString index="82">
            4 90 callsubr
            -54 callgsubr
            return
          </CharString>
          <CharString index="83">
            1530 rlineto
            return
          </CharString>
          <CharString index="84">
            hlineto
            199.99000549316406 546 61 168 18 -168 57 -546 rlineto
            413 hlineto
            595 -24 callsubr
            return
          </CharString>
          <CharString index="85">
            18 callsubr
            348 -832.9799957275391 rlineto
            297 hlineto
            return
          </CharString>
          <CharString index="86">
            90 callgsubr
            -39.02000427246094 -16 -16 callsubr
            hhcurveto
            -202 hlineto
            -218 161 callsubr
            85.02000427246094 572.9900054931641 rlineto
            157 236 callsubr
            60 -92 -175 151 callsubr
            hvcurveto
            49 -184 13 -86.02000427246094 25 -35.97999572753906 rrcurveto
            391.99000549316406 hlineto
            -39 -16 callgsubr
            -15.009994506835938 48.99000549316406 -85 262 rrcurveto
            return
          </CharString>
          <CharString index="87">
            4 callgsubr
            -287 40 callsubr
            return
          </CharString>
          <CharString index="88">
            -57 callsubr
            -189.00001525878906 43 46 188 callsubr
            return
          </CharString>
          <CharString index="89">
            316.97999572753906 vstem
            482.97999572753906 -22 rmoveto
            190.97999572753906 -101.99000549316406 117 -80 120 callgsubr
            vhcurveto
            -192 -156.02000427246094 -5 -41 rlineto
            33 -33 29 -105.97999572753906 289 callgsubr
            66 callsubr
            115 -141 rlineto
            144.02000427246094 60 209.97999572753906 187.99000549316406 283.00999450683594 vvcurveto
            return
          </CharString>
          <CharString index="90">
            -101.00999450683594 return
          </CharString>
          <CharString index="91">
            -118.99000549316406 return
          </CharString>
          <CharString index="92">
            rmoveto
            331 callgsubr
            -38 callsubr
            -617 -80 78 callgsubr
            -86.99000549316406 -151 -173 -43 82 callgsubr
            -118 rcurveline
            277 callsubr
            264 91.02000427246094 340.99000549316406 85 hvcurveto
            149 callgsubr
            98 87.99000549316406 262 callgsubr
          </CharString>
          <CharString index="93">
            -33 callgsubr
            450.99000549316406 -57 callgsubr
            return
          </CharString>
          <CharString index="94">
            139 callgsubr
            5 callsubr
            return
          </CharString>
          <CharString index="95">
            73.00999450683594 return
          </CharString>
          <CharString index="96">
            363.99000549316406 return
          </CharString>
          <CharString index="97">
            rmoveto
            130 callsubr
            hintmask 10110000
            0 callsubr
            hintmask 01110000
            -88 -181 rlineto
            hintmask 10110000
            27 callgsubr
            hintmask 01110000
            297 callsubr
          </CharString>
          <CharString index="98">
            18.990005493164062 return
          </CharString>
          <CharString index="99">
            rmoveto
            151 callsubr
            -18 43 -64.97999572753906 -88 vvcurveto
            -94.99000549316406 -60 -21 callgsubr
            -93.97999572753906 140 callsubr
            vhcurveto
            -3.0200042724609375 -21.009994506835938 93 -127 rlineto
            213 66 129 199.99000549316406 222 vvcurveto
            56 callgsubr
            -48 166 -152.99000549316406 58 vhcurveto
            -156 -188 -7 -54 rlineto
            endchar
          </CharString>
          <CharString index="100">
            -665 616.9799957275391 367 hstem
            148.99000549316406 368.97999572753906 vstem
            356.99000549316406 983.9799957275391 241 callgsubr
            -63.02000427246094 97 129 -34 callsubr
            87.02000427246094 130.99000549316406 212 callgsubr
            246 callgsubr
            69 -118 hvcurveto
            endchar
          </CharString>
          <CharString index="101">
            -7 -194.99000549316406 rlineto
            318 hlineto
            156 153 callgsubr
            -356.99000549316406 hlineto
            endchar
          </CharString>
          <CharString index="102">
            183 -167 145 -42 callgsubr
            -212 235 callsubr
            return
          </CharString>
          <CharString index="103">
            -15.009994506835938 -279 rlineto
            319.02000427246094 hlineto
            210.99000549316406 1634 rlineto
            return
          </CharString>
          <CharString index="104">
            -19.990005493164062 return
          </CharString>
          <CharString index="105">
            158.99000549316406 return
          </CharString>
          <CharString index="106">
            317 vstem
            56 callsubr
            1239.979995727539 rmoveto
            -191 102.00999450683594 -117 80 -45 vhcurveto
            192 156 5 41 rlineto
            -33 33 -29 105.99000549316406 211 callsubr
            vvcurveto
            159.99000549316406 81 112 69 35 vhcurveto
            -77 callsubr
            22 -115 141 rlineto
            -144 -60 -210 -187.99000549316406 -283.02000427246094 vvcurveto
            return
          </CharString>
          <CharString index="107">
            236 callgsubr
            -27 -183 -179.99000549316406 hhcurveto
            -5 -3 callsubr
            0 9.009994506835938 -13 hvcurveto
            return
          </CharString>
          <CharString index="108">
            80.02000427246094 return
          </CharString>
          <CharString index="109">
            176.99000549316406 -145 -77.99000549316406 return
          </CharString>
          <CharString index="110">
            -34 128 -51 98.02000427246094 -55 47.99000549316406 rrcurveto
            -260 10 callgsubr
            149.02000427246094 52 callsubr
            175 callgsubr
          </CharString>
          <CharString index="111">
            -4.0099945068359375 56 51 -76 callgsubr
            37 hhcurveto
            573.9900054931641 272 452.9700012207031 495 return
          </CharString>
          <CharString index="112">
            -112.99000549316406 return
          </CharString>
          <CharString index="113">
            1155.990005493164 return
          </CharString>
          <CharString index="114">
            -509.99000549316406 233 -232.989990234375 43 return
          </CharString>
          <CharString index="115">
            -94 callsubr
            243.97999572753906 -227.989990234375 227.97999572753906 718.010009765625 210 return
          </CharString>
          <CharString index="116">
            -34 128 -51 98.02000427246094 -55 47.99000549316406 rrcurveto
            -259.99000549316406 10 callgsubr
            149 83 19 callgsubr
            return
          </CharString>
          <CharString index="117">
            45 callgsubr
            70 callsubr
            return
          </CharString>
          <CharString index="118">
            rmoveto
            237 -12 callsubr
            89 210 228.99000549316406 vvcurveto
            250 -148.99000549316406 143 return
          </CharString>
          <CharString index="119">
            166 callsubr
            rlineto
            43 callsubr
            58 93 74 234 callsubr
            return
          </CharString>
          <CharString index="120">
            1056 -15.990005493164062 258.99000549316406 -243 -28 callgsubr
            145.010009765625 252 callsubr
            -56.95001220703125 40.96000671386719 309 callgsubr
            hintmask 00110101
            return
          </CharString>
          <CharString index="121">
            -193 0 286.97999572753906 963.010009765625 280 -86.010009765625 86.00999450683594 return
          </CharString>
          <CharString index="122">
            32 callgsubr
            303 callgsubr
            return
          </CharString>
          <CharString index="123">
            rmoveto
            145 callgsubr
            58 callsubr
            101.00999450683594 -5 callgsubr
            -68.02000427246094 88 -90.99000549316406 -9 callsubr
            vhcurveto
            endchar
          </CharString>
          <CharString index="124">
            -92 callgsubr
            -87 -108.99000549316406 return
          </CharString>
          <CharString index="125">
            -1530 rlineto
            338 hlineto
            115 832.9799957275391 -76 callgsubr
            275 99 -275 return
          </CharString>
          <CharString index="126">
            243.97999572753906 718.0000152587891 210 return
          </CharString>
          <CharString index="127">
            206 callsubr
            245 callgsubr
            -13 callgsubr
            163 callgsubr
            247 callgsubr
            116 callsubr
            -371.02000427246094 -373.99000549316406 rlineto
            return
          </CharString>
          <CharString index="128">
            hintmask 01010101
            -35 44 rlineto
            -821.9900054931641 hlineto
            -37 -267.02000427246094 rlineto
            428.02000427246094 hlineto
            -52.02000427246094 -42 callsubr
            -553.9900054931641 -790 rlineto
            hintmask 00110101
            35 119 callgsubr
            rlineto
            877 hlineto
            28 57 callgsubr
            rlineto
            -456 hlineto
            return
          </CharString>
          <CharString index="129">
            129 224 callgsubr
            186 callgsubr
            257 callgsubr
            -109 -2 hvcurveto
            return
          </CharString>
          <CharString index="130">
            -190 656 -397.99000549316406 110 197 callgsubr
            -363.99000549316406 301.02000427246094 430 306 -58 205 return
          </CharString>
          <CharString index="131">
            -91 callsubr
            hstem
            return
          </CharString>
          <CharString index="132">
            rmoveto
            -15 callgsubr
            return
          </CharString>
          <CharString index="133">
            -83 callsubr
            endchar
          </CharString>
          <CharString index="134">
            rmoveto
            58 callsubr
            101 -5 callgsubr
            -68.02000427246094 88 -91 123 callgsubr
          </CharString>
          <CharString index="135">
            131 callsubr
            57 64 110 73 callgsubr
            136 72 callsubr
            return
          </CharString>
          <CharString index="136">
            -92 callgsubr
            hhcurveto
            return
          </CharString>
          <CharString index="137">
            118 callgsubr
            -275.97999572753906 6 callgsubr
            -213.02000427246094 134 callgsubr
            return
          </CharString>
          <CharString index="138">
            -94 callsubr
            286.97999572753906 975.9900054931641 299 return
          </CharString>
          <CharString index="139">
            452.9700012207031 495 365.02000427246094 -158 249 -423 hvcurveto
            94 callgsubr
            return
          </CharString>
          <CharString index="140">
            -315 -131 -370 -223 return
          </CharString>
          <CharString index="141">
            -85 129 callgsubr
            876.9900054931641 85 callgsubr
            840 hlineto
            -50 callgsubr
            234 callgsubr
            -839.9900054931641 hlineto
            endchar
          </CharString>
          <CharString index="142">
            40 -4 28 71 callsubr
            return
          </CharString>
          <CharString index="143">
            0 43 880.9900054931641 216 return
          </CharString>
          <CharString index="144">
            rmoveto
            145 callgsubr
            86 callsubr
            -41 callgsubr
            -5 callgsubr
            -68 88 return
          </CharString>
          <CharString index="145">
            60 159 callgsubr
            281 callsubr
            return
          </CharString>
          <CharString index="146">
            -275.00999450683594 hlineto
            -98 -10 24.990005493164062 138 -38 callgsubr
            279 rlineto
            -272 hlineto
            -30 -279 -9.009994506835938 -139 -117 11 rlineto
            -249 hlineto
            -35 -263 rlineto
            249 hlineto
            124 7 rlineto
            return
          </CharString>
          <CharString index="147">
            -52 callsubr
            rlineto
            return
          </CharString>
          <CharString index="148">
            188 callgsubr
            -1 callgsubr
            -209 rlineto
            577 hlineto
            20.009994506835938 209 rlineto
            -577 hlineto
            return
          </CharString>
          <CharString index="149">
            89 callgsubr
            8 -17 hvcurveto
            -36 -203 rlineto
            -16 return
          </CharString>
          <CharString index="150">
            114.00999450683594 return
          </CharString>
          <CharString index="151">
            -40.94999694824219 -104 callsubr
            return
          </CharString>
          <CharString index="152">
            hlineto
            -80.02000427246094 -13 -32 -92 callgsubr
            -27 callgsubr
            hhcurveto
            -118 1 callgsubr
            39 80 67 callsubr
            2 15 2 14 hvcurveto
            -188 hlineto
            -5 -18 -7 221 callgsubr
            return
          </CharString>
          <CharString index="153">
            50 callsubr
            -22 callgsubr
            return
          </CharString>
          <CharString index="154">
            91.00999450683594 111 2.9900054931640625 hvcurveto
            87 2 return
          </CharString>
          <CharString index="155">
            277.99000549316406 -40.95001220703125 -104 callsubr
            return
          </CharString>
          <CharString index="156">
            365.02000427246094 -158 249 -423 return
          </CharString>
          <CharString index="157">
            181 346.99000549316406 47 hvcurveto
            return
          </CharString>
          <CharString index="158">
            -77 callsubr
            hvcurveto
            return
          </CharString>
          <CharString index="159">
            82.97999572753906 return
          </CharString>
          <CharString index="160">
            1504.990005493164 rmoveto
            147 callgsubr
            302 callsubr
            201 callgsubr
            return
          </CharString>
          <CharString index="161">
            -56 callsubr
            87 608.9900054931641 432 -7 36 291 -428.00999450683594 -6 53 372 500 -4 42 275 rlineto
            -857.0099945068359 hlineto
            endchar
          </CharString>
          <CharString index="162">
            -30 42 callsubr
            23 164 -19 293 callgsubr
            101 132 return
          </CharString>
          <CharString index="163">
            205.99000549316406 return
          </CharString>
          <CharString index="164">
            0 274.97999572753906 21.010009765625 250.97999572753906 106.52000427246094 269 333.5 274 -256 256 -202.010009765625 202 -169.989990234375 170 return
          </CharString>
          <CharString index="165">
            35 callsubr
            -3 1 callgsubr
            return
          </CharString>
          <CharString index="166">
            -151 292 callsubr
            134 114 95 return
          </CharString>
          <CharString index="167">
            122 rcurveline
            -279 342 -210 -187 rlineto
            return
          </CharString>
          <CharString index="168">
            1826.979995727539 rmoveto
            208 callgsubr
            return
          </CharString>
          <CharString index="169">
            81.989990234375 363 hstemhm
            return
          </CharString>
          <CharString index="170">
            1479.990005493164 rmoveto
            return
          </CharString>
          <CharString index="171">
            rmoveto
            -681 -1530 rlineto
            259.00999450683594 hlineto
            681 -24 callsubr
            -259.00999450683594 hlineto
            return
          </CharString>
          <CharString index="172">
            1 callgsubr
            101 115 callsubr
            return
          </CharString>
          <CharString index="173">
            vvcurveto
            -159.99000549316406 -81 -112 -69 -35 vhcurveto
            -2 -22 return
          </CharString>
          <CharString index="174">
            16.020004272460938 return
          </CharString>
          <CharString index="175">
            -280 -204 -248 -249 hvcurveto
            1160.990005493164 495 rmoveto
            -727 -1530 rlineto
            269 hlineto
            707.0099945068359 -24 callsubr
            -249.02000427246094 hlineto
            -598 -369 rmoveto
            return
          </CharString>
          <CharString index="176">
            274 callgsubr
            140 callgsubr
            161.97000122070312 251 callgsubr
            -3 callgsubr
            hvcurveto
            -110 87 -83 69.02000427246094 return
          </CharString>
          <CharString index="177">
            -334 48 callgsubr
            return
          </CharString>
          <CharString index="178">
            205 callsubr
            -23 -13 vhcurveto
            return
          </CharString>
          <CharString index="179">
            -16 callgsubr
            hvcurveto
            return
          </CharString>
          <CharString index="180">
            -79.00999450683594 return
          </CharString>
          <CharString index="181">
            -30.990005493164062 return
          </CharString>
          <CharString index="182">
            529.9799957275391 525.9900054931641 rmoveto
            -33 -275.99000549316406 rlineto
            273 hlineto
            34 275.99000549316406 6 135 167 callsubr
            -7 rlineto
            274 hlineto
            35 263 rlineto
            return
          </CharString>
          <CharString index="183">
            -3 133 74 callgsubr
            59 callsubr
            202 callsubr
            -35 -58 -83 -110 -7 154 -172 hhcurveto
            return
          </CharString>
          <CharString index="184">
            rmoveto
            78 callsubr
            255 109 188 -2 callsubr
            return
          </CharString>
          <CharString index="185">
            -180 -34 callsubr
            -116 240 return
          </CharString>
          <CharString index="186">
            81 -10 callgsubr
            hhcurveto
            return
          </CharString>
          <CharString index="187">
            161 6 callsubr
            return
          </CharString>
          <CharString index="188">
            84.00999450683594 return
          </CharString>
          <CharString index="189">
            -96.00999450683594 return
          </CharString>
          <CharString index="190">
            279.97999572753906 return
          </CharString>
          <CharString index="191">
            149 callsubr
            53 callgsubr
            121 171 vvcurveto
            105 return
          </CharString>
          <CharString index="192">
            226 callgsubr
            -58 88 callgsubr
            hhcurveto
            hintmask 11011100
            -110 -27.020004272460938 144 -56 callgsubr
            195 callsubr
            226 callgsubr
            hvcurveto
            return
          </CharString>
          <CharString index="193">
            35 callsubr
            -2.9900054931640625 1 callgsubr
            return
          </CharString>
          <CharString index="194">
            -119.00999450683594 return
          </CharString>
          <CharString index="195">
            -334.00999450683594 return
          </CharString>
          <CharString index="196">
            72.00999450683594 return
          </CharString>
          <CharString index="197">
            -55.99000549316406 return
          </CharString>
          <CharString index="198">
            103 callgsubr
            -2 hvcurveto
            return
          </CharString>
          <CharString index="199">
            -171 -14 213.99000549316406 743.989990234375 157 callsubr
            return
          </CharString>
          <CharString index="200">
            179 callsubr
            121 callgsubr
            return
          </CharString>
          <CharString index="201">
            -93 -2 285 callgsubr
            167 callgsubr
            182 callgsubr
            return
          </CharString>
          <CharString index="202">
            91 111 2 hvcurveto
            -20 callgsubr
            return
          </CharString>
          <CharString index="203">
            242 callsubr
            239.99000549316406 return
          </CharString>
          <CharString index="204">
            235 callgsubr
            268 callgsubr
            return
          </CharString>
          <CharString index="205">
            -36 callgsubr
            -248 -36 hvcurveto
            return
          </CharString>
          <CharString index="206">
            -73.00999450683594 return
          </CharString>
          <CharString index="207">
            247.99000549316406 return
          </CharString>
          <CharString index="208">
            19.990005493164062 return
          </CharString>
          <CharString index="209">
            301 callgsubr
            -41 -180 90 callgsubr
            -144.02000427246094 vvcurveto
            -105 -34 callsubr
            204 callsubr
            103 40 83 return
          </CharString>
          <CharString index="210">
            884 113 callsubr
            -185.02000427246094 -111 -172 275 callgsubr
            -50 hvcurveto
            21 121 73 callgsubr
            658 rlineto
            -343 hlineto
            return
          </CharString>
          <CharString index="211">
            -91 callgsubr
            -36 callsubr
            return
          </CharString>
          <CharString index="212">
            -153 -128 -87 -135 -88 return
          </CharString>
          <CharString index="213">
            -66 -491.97999572753906 43 432.989990234375 209.97999572753906 -203.989990234375 43 878.9900054931641 228 -228 -57 callsubr
            return
          </CharString>
          <CharString index="214">
            84 callsubr
            -68 88 272 callsubr
            123 callgsubr
          </CharString>
          <CharString index="215">
            264 callgsubr
            596.9900054931641 hlineto
            18 67 callgsubr
            rlineto
            return
          </CharString>
          <CharString index="216">
            -78.99000549316406 return
          </CharString>
          <CharString index="217">
            -74.02000427246094 return
          </CharString>
          <CharString index="218">
            95.99000549316406 return
          </CharString>
          <CharString index="219">
            1779 rmoveto
            138 callsubr
            return
          </CharString>
          <CharString index="220">
            6 callsubr
            rmoveto
            return
          </CharString>
          <CharString index="221">
            vstem
            300.99000549316406 1687 rmoveto
            223 callsubr
            -721.0200042724609 rlineto
            228 hlineto
            184 721.0200042724609 rlineto
            -327 hlineto
            return
          </CharString>
          <CharString index="222">
            -70 rlineto
            104 84 callsubr
            return
          </CharString>
          <CharString index="223">
            68.00999450683594 -211.99000549316406 373.99000549316406 213 callsubr
            return
          </CharString>
          <CharString index="224">
            265 callgsubr
            -11 callsubr
            return
          </CharString>
          <CharString index="225">
            rlineto
            120 callsubr
            hlineto
            return
          </CharString>
          <CharString index="226">
            89.99000549316406 return
          </CharString>
          <CharString index="227">
            357.00999450683594 return
          </CharString>
          <CharString index="228">
            hmoveto
            118 -86 53 callgsubr
            -8 callgsubr
            153 157 69 116 rlinecurve
            -180 144 -285 -368.99000549316406 rlineto
            return
          </CharString>
          <CharString index="229">
            rmoveto
            -219 137 callsubr
            return
          </CharString>
          <CharString index="230">
            319 -940.0099945068359 rlineto
            endchar
          </CharString>
          <CharString index="231">
            119.99000549316406 -1157 389 179 callgsubr
            437 1141.990005493164 74 234 171 callsubr
            -234 rlineto
            return
          </CharString>
          <CharString index="232">
            hhcurveto
            467.99000549316406 235 370.9700012207031 369.00999450683594 return
          </CharString>
          <CharString index="233">
            188 -2 callsubr
            142 callgsubr
            0 225 callgsubr
            return
          </CharString>
          <CharString index="234">
            -137 -110.99000549316406 -123 -128 -43 hvcurveto
            return
          </CharString>
          <CharString index="235">
            -77 callsubr
            -64 79 callsubr
            return
          </CharString>
          <CharString index="236">
            rlineto
            354 hlineto
            73 callgsubr
            return
          </CharString>
          <CharString index="237">
            -147 -1075.020004272461 rlineto
            return
          </CharString>
          <CharString index="238">
            14.990005493164062 return
          </CharString>
          <CharString index="239">
            108.99000549316406 return
          </CharString>
          <CharString index="240">
            -102.00999450683594 return
          </CharString>
          <CharString index="241">
            119.00999450683594 return
          </CharString>
          <CharString index="242">
            310 callgsubr
            65 callsubr
            return
          </CharString>
          <CharString index="243">
            179 callsubr
            1077.990005493164 -169 21.009994506835938 -51 -41 -225 -103 -140 -35 rlinecurve
            13 -158 231 52 return
          </CharString>
          <CharString index="244">
            -1530 rlineto
            848 hlineto
            42 198 callsubr
            187 callsubr
            180 1253 80 callgsubr
            return
          </CharString>
          <CharString index="245">
            -93 -2 232 callgsubr
            return
          </CharString>
          <CharString index="246">
            148 -59 callgsubr
            return
          </CharString>
          <CharString index="247">
            -48.99000549316406 return
          </CharString>
          <CharString index="248">
            1671.990005493164 return
          </CharString>
          <CharString index="249">
            75.97999572753906 return
          </CharString>
          <CharString index="250">
            271 callgsubr
            rmoveto
            124 99 88 callsubr
            449 -209 -200 98 callgsubr
            rlinecurve
            return
          </CharString>
          <CharString index="251">
            1935.990005493164 rmoveto
            return
          </CharString>
          <CharString index="252">
            -33 callgsubr
            1550.020004272461 -62 callgsubr
            -274 return
          </CharString>
          <CharString index="253">
            vvcurveto
            -105 81 callsubr
            204 callsubr
            return
          </CharString>
          <CharString index="254">
            -27 callsubr
            307.00999450683594 299 callsubr
            return
          </CharString>
          <CharString index="255">
            170.99000549316406 return
          </CharString>
          <CharString index="256">
            19.009994506835938 return
          </CharString>
          <CharString index="257">
            73.99000549316406 return
          </CharString>
          <CharString index="258">
            42.99000549316406 return
          </CharString>
          <CharString index="259">
            -127.02000427246094 return
          </CharString>
          <CharString index="260">
            vstem
            349 1781.990005493164 rmoveto
            -124 -592 rlineto
            238 hlineto
            191 592 rlineto
            -304.99000549316406 hlineto
            return
          </CharString>
          <CharString index="261">
            161 callsubr
            61 426.99000549316406 153.99000549316406 171 126.02000427246094 -292 rlineto
            return
          </CharString>
          <CharString index="262">
            212 131 callgsubr
            return
          </CharString>
          <CharString index="263">
            -61 -94 callsubr
            209.97999572753906 -193.989990234375 43 868.9900054931641 -57 callsubr
            return
          </CharString>
          <CharString index="264">
            213.99000549316406 hstem
            -66 callsubr
            vstem
            return
          </CharString>
          <CharString index="265">
            -497 -185.99000549316406 1965.990005493164 hstem
            320 251 callsubr
            vstem
            320 1780 rmoveto
            return
          </CharString>
          <CharString index="266">
            hstemhm
            65.99000549316406 364.00999450683594 return
          </CharString>
          <CharString index="267">
            -180 81 callsubr
            -116 return
          </CharString>
          <CharString index="268">
            -1530 rlineto
            354 hlineto
            return
          </CharString>
          <CharString index="269">
            339 135.010009765625 return
          </CharString>
          <CharString index="270">
            rlineto
            -359.02000427246094 hlineto
            return
          </CharString>
          <CharString index="271">
            1665.990005493164 rmoveto
            return
          </CharString>
          <CharString index="272">
            rmoveto
            -39 callsubr
            return
          </CharString>
          <CharString index="273">
            698.9799957275391 return
          </CharString>
          <CharString index="274">
            97.02000427246094 return
          </CharString>
          <CharString index="275">
            -24.990005493164062 return
          </CharString>
          <CharString index="276">
            -49.99000549316406 return
          </CharString>
          <CharString index="277">
            -72.99000549316406 return
          </CharString>
          <CharString index="278">
            -26.990005493164062 return
          </CharString>
          <CharString index="279">
            -2 callgsubr
            362.99000549316406 161.02000427246094 -100 116 -180 -50 callgsubr
            hvcurveto
            return
          </CharString>
          <CharString index="280">
            14.009994506835938 203.02000427246094 rlineto
            -344 hlineto
            -156.02000427246094 -1140 rlineto
            357 hlineto
            return
          </CharString>
          <CharString index="281">
            -11 -42 callgsubr
            hhcurveto
            251 239 callgsubr
            return
          </CharString>
          <CharString index="282">
            305 callgsubr
            53 244 callgsubr
            108.00999450683594 92 36 77 return
          </CharString>
          <CharString index="283">
            190 callsubr
            110 return
          </CharString>
          <CharString index="284">
            51 199 156 vvcurveto
            80 -13 82 -26 callgsubr
            return
          </CharString>
          <CharString index="285">
            -146.99000549316406 return
          </CharString>
          <CharString index="286">
            147.99000549316406 return
          </CharString>
          <CharString index="287">
            -54.99000549316406 return
          </CharString>
          <CharString index="288">
            204 42 98 155 197.02000427246094 vvcurveto
            191 -115 156 -393.00999450683594 vhcurveto
            return
          </CharString>
          <CharString index="289">
            126 callsubr
            -1 142 callgsubr
            return
          </CharString>
          <CharString index="290">
            hlineto
            181 1265.990005493164 351.99000549316406 303 callsubr
            return
          </CharString>
          <CharString index="291">
            rmoveto
            105 callsubr
            hvcurveto
            return
          </CharString>
          <CharString index="292">
            681 rrcurveto
            -356 hlineto
            endchar
          </CharString>
          <CharString index="293">
            1312.990005493164 rmoveto
            return
          </CharString>
          <CharString index="294">
            -496.99000549316406 -11 return
          </CharString>
          <CharString index="295">
            -57 callsubr
            hstemhm
            return
          </CharString>
          <CharString index="296">
            1257.979995727539 rmoveto
            return
          </CharString>
          <CharString index="297">
            36 callsubr
            314 -12 callgsubr
            return
          </CharString>
          <CharString index="298">
            139.02000427246094 -83 56 callgsubr
            50.02000427246094 206 238 27 105 rlinecurve
            return
          </CharString>
          <CharString index="299">
            36 callgsubr
            43 return
          </CharString>
          <CharString index="300">
            -470.99000549316406 222 return
          </CharString>
          <CharString index="301">
            63 callsubr
            -93 return
          </CharString>
          <CharString index="302">
            hhcurveto
            -111 -150 -106 -91 return
          </CharString>
          <CharString index="303">
            101.00999450683594 return
          </CharString>
          <CharString index="304">
            162.97999572753906 return
          </CharString>
          <CharString index="305">
            287.97999572753906 return
          </CharString>
          <CharString index="306">
            rmoveto
            298 callgsubr
            285 callgsubr
            143 -47 callgsubr
            return
          </CharString>
          <CharString index="307">
            -271 0 43 562.4900054931641 284.50999450683594 367 272.99000549316406 return
          </CharString>
          <CharString index="308">
            248 245.010009765625 100 callsubr
            hstem
            105.97999572753906 932 vstem
            return
          </CharString>
          <CharString index="309">
            39 hvcurveto
            -16 callsubr
            145 rlineto
            -52 -42 return
          </CharString>
          <CharString index="310">
            198 callgsubr
            135.00999450683594 339 return
          </CharString>
          <CharString index="311">
            -41 callsubr
            129 145 return
          </CharString>
          <CharString index="312">
            -47 -50 vvcurveto
            -72 -46 -44 return
          </CharString>
          <CharString index="313">
            1295.990005493164 rmoveto
            return
          </CharString>
          <CharString index="314">
            -104 callsubr
            hstem
            return
          </CharString>
          <CharString index="315">
            119 callsubr
            hhcurveto
            return
          </CharString>
          <CharString index="316">
            -223.99000549316406 return
          </CharString>
          <CharString index="317">
            -333.99000549316406 return
          </CharString>
          <CharString index="318">
            78.00999450683594 return
          </CharString>
          <CharString index="319">
            -203.97999572753906 return
          </CharString>
          <CharString index="320">
            rlineto
            -180 hlineto
            return
          </CharString>
          <CharString index="321">
            856.9900054931641 rmoveto
            606 673.0099945068359 rlineto
            -403.99000549316406 hlineto
            return
          </CharString>
          <CharString index="322">
            -110 -27 144 -172 195 callsubr
            119 callgsubr
            hvcurveto
            return
          </CharString>
          <CharString index="323">
            928.9900054931641 1155.990005493164 184 callsubr
            return
          </CharString>
          <CharString index="324">
            -364.00999450683594 hlineto
            endchar
          </CharString>
          <CharString index="325">
            73 callsubr
            -103 -112 -41 callsubr
            59 -62.99000549316406 return
          </CharString>
          <CharString index="326">
            233 50 callsubr
            return
          </CharString>
          <CharString index="327">
            43 1217.5 269.49000549316406 return
          </CharString>
          <CharString index="328">
            -92 callgsubr
            81 hhcurveto
            return
          </CharString>
          <CharString index="329">
            -72 -526.0099945068359 rlineto
            return
          </CharString>
          <CharString index="330">
            -85.00999450683594 return
          </CharString>
          <CharString index="331">
            -28.020004272460938 return
          </CharString>
          <CharString index="332">
            -205.99000549316406 return
          </CharString>
          <CharString index="333">
            257.97999572753906 return
          </CharString>
          <CharString index="334">
            -276.00999450683594 return
          </CharString>
          <CharString index="335">
            -33 29 -106 -78 66 callsubr
            return
          </CharString>
          <CharString index="336">
            327 callsubr
            268 callgsubr
            81 hhcurveto
            return
          </CharString>
          <CharString index="337">
            194 callsubr
            -2 return
          </CharString>
          <CharString index="338">
            186 callsubr
            143 return
          </CharString>
          <CharString index="339">
            -59 callgsubr
            -484 rlineto
            return
          </CharString>
          <CharString index="340">
            -39 263 callsubr
            return
          </CharString>
          <CharString index="341">
            -12 callsubr
            hhcurveto
            return
          </CharString>
          <CharString index="342">
            337 213 callsubr
            return
          </CharString>
          <CharString index="343">
            hlineto
            -11 callgsubr
            return
          </CharString>
          <CharString index="344">
            hstemhm
            142 callsubr
            return
          </CharString>
          <CharString index="345">
            -69 callgsubr
            244 callsubr
            return
          </CharString>
          <CharString index="346">
            42 -14 265.99000549316406 1029.989990234375 265.99000549316406 return
          </CharString>
          <CharString index="347">
            rmoveto
            -218 161 callsubr
            70 488.97999572753906 rlineto
            return
          </CharString>
          <CharString index="348">
            hstemhm
            -123 196 callgsubr
            hintmask 01101110
            return
          </CharString>
          <CharString index="349">
            rmoveto
            160 callsubr
            return
          </CharString>
          <CharString index="350">
            -94 callsubr
            110 callgsubr
            return
          </CharString>
          <CharString index="351">
            -242.02000427246094 return
          </CharString>
          <CharString index="352">
            hstemhm
            121 367 return
          </CharString>
          <CharString index="353">
            115.02000427246094 return
          </CharString>
          <CharString index="354">
            123.99000549316406 return
          </CharString>
          <CharString index="355">
            362.97999572753906 return
          </CharString>
          <CharString index="356">
            -125.99000549316406 return
          </CharString>
          <CharString index="357">
            248.97999572753906 return
          </CharString>
          <CharString index="358">
            252.99000549316406 return
          </CharString>
          <CharString index="359">
            260.99000549316406 return
          </CharString>
          <CharString index="360">
            192 30 177 rlineto
            -250 hlineto
            -24 -177 -22 -192 rlineto
            return
          </CharString>
          <CharString index="361">
            637 -18 43 -25 43 1329.990005493164 156.99000549316406 return
          </CharString>
          <CharString index="362">
            965.9799957275391 721.0200042724609 hstem
            215.97999572753906 return
          </CharString>
          <CharString index="363">
            -91 callsubr
            324 callsubr
            return
          </CharString>
          <CharString index="364">
            40.96000671386719 -72 callgsubr
            return
          </CharString>
          <CharString index="365">
            1209 0 43 12.990005493164062 201.5 return
          </CharString>
          <CharString index="366">
            hhcurveto
            54 -24 callgsubr
            25 callgsubr
            return
          </CharString>
          <CharString index="367">
            -69 vvcurveto
            -129 -134 180 callsubr
            -134 -2 vhcurveto
            return
          </CharString>
          <CharString index="368">
            614 311 callsubr
            253 -253 269 return
          </CharString>
          <CharString index="369">
            238 rlineto
            hintmask 11101000
            22 -54 -69 4 return
          </CharString>
          <CharString index="370">
            -28 131 callsubr
            57 return
          </CharString>
          <CharString index="371">
            -24 callsubr
            -342 hlineto
            return
          </CharString>
          <CharString index="372">
            -5 -18 -7 -44 -23 vvcurveto
            return
          </CharString>
          <CharString index="373">
            216 rlineto
            -189 hlineto
            return
          </CharString>
          <CharString index="374">
            -206.99000549316406 rlineto
            return
          </CharString>
          <CharString index="375">
            240.99000549316406 return
          </CharString>
          <CharString index="376">
            152.99000549316406 return
          </CharString>
          <CharString index="377">
            3.9900054931640625 return
          </CharString>
          <CharString index="378">
            366.97999572753906 return
          </CharString>
          <CharString index="379">
            -91.00999450683594 return
          </CharString>
          <CharString index="380">
            39.02000427246094 return
          </CharString>
          <CharString index="381">
            -63.02000427246094 return
          </CharString>
          <CharString index="382">
            97.00999450683594 return
          </CharString>
          <CharString index="383">
            34.970001220703125 return
          </CharString>
          <CharString index="384">
            236.99000549316406 return
          </CharString>
          <CharString index="385">
            173 368 return
          </CharString>
          <CharString index="386">
            -83 266 callgsubr
            -92 callgsubr
            80 hhcurveto
            return
          </CharString>
          <CharString index="387">
            286 callsubr
            180 callsubr
            hhcurveto
            return
          </CharString>
          <CharString index="388">
            -64 62 callgsubr
            return
          </CharString>
          <CharString index="389">
            131.99000549316406 984 hstem
            173.99000549316406 return
          </CharString>
          <CharString index="390">
            -731 1706.979995727539 111 callgsubr
            hstem
            return
          </CharString>
          <CharString index="391">
            -87 81 callgsubr
            return
          </CharString>
          <CharString index="392">
            134 callgsubr
            -126 -68 return
          </CharString>
          <CharString index="393">
            -44 -56 -42 75 callgsubr
            return
          </CharString>
          <CharString index="394">
            102.99000549316406 return
          </CharString>
          <CharString index="395">
            -67.02000427246094 return
          </CharString>
          <CharString index="396">
            181.99000549316406 return
          </CharString>
          <CharString index="397">
            -133.02000427246094 return
          </CharString>
          <CharString index="398">
            299.99000549316406 return
          </CharString>
          <CharString index="399">
            196 hhcurveto
            117 return
          </CharString>
          <CharString index="400">
            -184 -45 rlineto
            return
          </CharString>
          <CharString index="401">
            298 callsubr
            1272.990005493164 vstem
            return
          </CharString>
          <CharString index="402">
            220 callsubr
            hstem
            return
          </CharString>
          <CharString index="403">
            -32 -762.9799957275391 -1327.979995727539 rlineto
            return
          </CharString>
          <CharString index="404">
            -358.99000549316406 hlineto
            endchar
          </CharString>
          <CharString index="405">
            hstem
            52 callsubr
            return
          </CharString>
          <CharString index="406">
            132 callgsubr
            vstem
            return
          </CharString>
          <CharString index="407">
            hhcurveto
            171 callgsubr
            return
          </CharString>
          <CharString index="408">
            -219 -1530 rlineto
            return
          </CharString>
          <CharString index="409">
            1 callsubr
            hhcurveto
            return
          </CharString>
          <CharString index="410">
            -11 40 275 rlineto
            -1066.990005493164 hlineto
            return
          </CharString>
          <CharString index="411">
            hhcurveto
            -471.99000549316406 -283.00999450683594 return
          </CharString>
          <CharString index="412">
            1798.979995727539 rmoveto
            88 callgsubr
            return
          </CharString>
          <CharString index="413">
            -41 callsubr
            59 274 callsubr
            return
          </CharString>
          <CharString index="414">
            -209 200 210 callsubr
            -449 return
          </CharString>
          <CharString index="415">
            74 -177 -156 -234 -68 -235 vhcurveto
            return
          </CharString>
          <CharString index="416">
            132 callgsubr
            hintmask 00000000
            return
          </CharString>
          <CharString index="417">
            449 -209 -200 rlineto
            return
          </CharString>
          <CharString index="418">
            0 43 843.9799957275391 return
          </CharString>
          <CharString index="419">
            125.99000549316406 return
          </CharString>
          <CharString index="420">
            926.9900054931641 return
          </CharString>
          <CharString index="421">
            103.02000427246094 return
          </CharString>
          <CharString index="422">
            -357.99000549316406 return
          </CharString>
          <CharString index="423">
            375.99000549316406 return
          </CharString>
          <CharString index="424">
            391.97999572753906 return
          </CharString>
          <CharString index="425">
            79.00999450683594 return
          </CharString>
          <CharString index="426">
            113.00999450683594 return
          </CharString>
          <CharString index="427">
            514.9900054931641 return
          </CharString>
          <CharString index="428">
            157 368 hstemhm
            return
          </CharString>
          <CharString index="429">
            -12.990005493164062 return
          </CharString>
          <CharString index="430">
            234.99000549316406 return
          </CharString>
          <CharString index="431">
            142 43 hstem
            return
          </CharString>
          <CharString index="432">
            1779 rmoveto
            298 callgsubr
            return
          </CharString>
          <CharString index="433">
            hlineto
            -90 callgsubr
            return
          </CharString>
          <CharString index="434">
            88 callgsubr
            -91 callgsubr
            return
          </CharString>
          <CharString index="435">
            40 -4 135 callgsubr
            -47 -50 vvcurveto
            return
          </CharString>
          <CharString index="436">
            -485.99000549316406 hvcurveto
            -1625 vmoveto
            return
          </CharString>
          <CharString index="437">
            hlineto
            67 callgsubr
            -24 callsubr
            return
          </CharString>
          <CharString index="438">
            371 348 return
          </CharString>
        <CharString name=".notdef">
          521 0 67 callgsubr
          973.989990234375 223 hstem
          249 callgsubr
          229 960 227 vstem
          249 callgsubr
          1415.990005493164 rmoveto
          -1415.990005493164 1416 1415.990005493164 -1416 vlineto
          357.99000549316406 -1197 rmoveto
          -128 144 358.00999450683594 342 -359 363.00999450683594 122.99000549316406 53 callgsubr
          357 -367.99000549316406 352.00999450683594 366 128 -124 -363 315 callsubr
          363 -368 -122 -122 -362 368 -347.02000427246094 -368 rlineto
          endchar
        </CharString>
        <CharString name="A">
          -80 callsubr
          hstemhm
          -123 196 callgsubr
          hintmask 01101100
          938.9900054931641 -1 rmoveto
          355 1 -227 -24 callsubr
          -450 hlineto
          hintmask 10101100
          -64 callgsubr
          hintmask 01101100
          -53 callgsubr
          hintmask 01110100
          -82 callgsubr
          hintmask 01101100
          76 callgsubr
        </CharString>
        <CharString name="AE">
          633 57 callsubr
          hstemhm
          -121 2105.979995727539 hintmask 10110001
          1948 1254.990005493164 259 callgsubr
          hintmask 10100011
          -28 -170 rlineto
          hintmask 10100101
          242 296 callsubr
          391.99000549316406 hlineto
          hintmask 11110001
          158 296 rlineto
          465 hlineto
          hintmask 10110001
          -42 -296 33 callgsubr
          hintmask 11101001
          -1385 -708.0200042724609 rmoveto
          391 731.0200042724609 80 284 callgsubr
        </CharString>
        <CharString name="AEacute">
          645 57 callsubr
          142 43 hstemhm
          -108.99000549316406 2105.979995727539 hintmask 1011000110000000
          1567.990005493164 1826.979995727539 rmoveto
          -210 41 callgsubr
          143 -122 275 callsubr
          203 callgsubr
          392.00999450683594 -571.9900054931641 259 callgsubr
          hintmask 1010001110000000
          -28 -170 rlineto
          hintmask 1010010110000000
          110 callgsubr
          296 callsubr
          317 callsubr
          hlineto
          hintmask 1111000110000000
          158 296 rlineto
          465 hlineto
          hintmask 1011000110000000
          -42 -296 243 callgsubr
          -633.0200042724609 -10 55 388 421.00999450683594 -8.990005493164062 35.99000549316406 276 -419 -5.0200042724609375 48 337 562.0099945068359 -91 callgsubr
          rlineto
          hintmask 1110100110000000
          -1385 -708.0200042724609 rmoveto
          390.99000549316406 731.0200042724609 1 callsubr
          284 callgsubr
        </CharString>
        <CharString name="Aacute">
          -80 callsubr
          142 43 241 callsubr
          1211.990005493164 1826.979995727539 rmoveto
          -210 41 callgsubr
          167 callgsubr
          -122 97 36 -27 callsubr
          140 53 29 callgsubr
          -273 -1827.979995727539 -73 callgsubr
        </CharString>
        <CharString name="Abreve">
          -80 callsubr
          103 217 hstemhm
          520.9900054931641 -27 callsubr
          307.0199890136719 132 callgsubr
          hintmask 01101111
          844.9799957275391 1632.990005493164 rmoveto
          255 109.02000427246094 188 -2 callsubr
          11 0 12 -1 11 hvcurveto
          -183.99000549316406 hlineto
          -80 -13 -32.02000427246094 -29 callgsubr
          265 callsubr
          -180 84 -116 239.99000549316406 vhcurveto
          94 -1633.990005493164 rmoveto
          355 1 -227 -24 callsubr
          -450 hlineto
          hintmask 10101111
          -64 callgsubr
          hintmask 01101111
          -53 callgsubr
          hintmask 01110111
          -82 callgsubr
          hintmask 01101111
          76 callgsubr
        </CharString>
        <CharString name="Acircumflex">
          -76 callsubr
        </CharString>
        <CharString name="Adieresis">
          -80 callsubr
          194 callgsubr
          hstemhm
          433.99000549316406 339 134.989990234375 339 hintmask 01101111
          583.9900054931641 187 callgsubr
          -44 callsubr
          -82.99000549316406 266 callgsubr
          -61 callgsubr
          80 hhcurveto
          472 hmoveto
          91 callsubr
          229 callsubr
          -117 -1632.990005493164 rmoveto
          355 1 -227 -24 callsubr
          -450 hlineto
          hintmask 10101111
          -64 callgsubr
          hintmask 01101111
          -53 callgsubr
          hintmask 01110111
          -82 callgsubr
          hintmask 01101111
          76 callgsubr
        </CharString>
        <CharString name="Agrave">
          -80 callsubr
          142 43 241 callsubr
          806.9900054931641 1549.990005493164 rmoveto
          143 122 -279 342 -210 -187 208 callgsubr
          196 -140 275 callsubr
          -36 rlinecurve
          132 -1550.990005493164 -73 callgsubr
        </CharString>
        <CharString name="Amacron">
          -80 callsubr
          176.989990234375 111 callgsubr
          241 callsubr
          1146 188 callgsubr
          -577 hlineto
          -1 callgsubr
          -209 rlineto
          577 hlineto
          20 209 rlineto
          -207 -1916.990005493164 -73 callgsubr
        </CharString>
        <CharString name="Aogonek">
          6 7 callsubr
          465.97999572753906 -69 callsubr
          hstemhm
          -111 196 callgsubr
          -583.010009765625 281 hintmask 0000000000000000
          hintmask 1001101010000000
          1070.979995727539 -276.99000549316406 rmoveto
          -39 -28 28 callsubr
          -16 callgsubr
          hlineto
          -227 -24 callsubr
          -450 hlineto
          hintmask 0110101010000000
          -739.9799957275391 -1531 390 1 116.99000549316406 285.97999572753906 rlineto
          523.0200042724609 236 callsubr
          -286.97999572753906 rlineto
          46 hlineto
          -97 -42 -177 276 callgsubr
          -143.02000427246094 146 callsubr
          287 callsubr
          40 83 81 vhcurveto
          hintmask 1001101100000000
          162 callgsubr
          hintmask 1001101010000000
          286 callsubr
          -55 hhcurveto
          hintmask 0101110100000000
          -576.9900054931641 803.9799957275391 rmoveto
          275.99000549316406 675 39 118.99000549316406 6 -16 callsubr
          76 -675 rlineto
          76 callgsubr
        </CharString>
        <CharString name="Aring">
          -6 -1 43 -42 43 242.97999572753906 241 962.0500030517578 -104 callsubr
          348 209 callgsubr
          hstemhm
          505.99000549316406 -27 callsubr
          304.99998474121094 195 hintmask 01111110
          938.9900054931641 -1 rmoveto
          355 1 -227 -24 callsubr
          -7 hlineto
          83 50 59 83 117.99000549316406 vvcurveto
          159 -129 74 -36 callgsubr
          -156.02000427246094 -233.99000549316406 -68 -235 -86 40 -64 -48 callgsubr
          -40 vhcurveto
          hintmask 10111110
          -735.9900054931641 -1521.990005493164 390 1 117 285.97999572753906 rlineto
          523 hlineto
          hintmask 01111110
          -11 callgsubr
          -286.97999572753906 rlineto
          -68 1879 rmoveto
          70 65.99000549316406 -52 99 callsubr
          175 callsubr
          hvcurveto
          -389 -1351 rmoveto
          -82 callgsubr
          76 callgsubr
        </CharString>
        <CharString name="Atilde">
          -80 callsubr
          62 -19 callsubr
          -123 1467 hintmask 0000000000000000
          hintmask 0110110010000000
          709.9799957275391 1735.990005493164 rmoveto
          -76 callgsubr
          133.02000427246094 5 -141 196 17 callgsubr
          hintmask 0110101110000000
          -110 171 callsubr
          144 -172.02000427246094 195 callsubr
          -45 hvcurveto
          106 -136 rlineto
          hintmask 0110110010000000
          41.99000549316406 44 54 46 68 -1 rrcurveto
          hintmask 1010101010000000
          -93 225 callsubr
          rmoveto
          -64 callgsubr
          hintmask 0110101010000000
          -11 callgsubr
          -286.97999572753906 355 1 -227 -24 callsubr
          hintmask 1010101010000000
          -450 hlineto
          -134.99000549316406 -1003 rmoveto
          hintmask 0111001010000000
          -82 callgsubr
          hintmask 1010101010000000
          76 callgsubr
        </CharString>
        <CharString name="B">
          1 -94 callsubr
          250 callsubr
          -232.989990234375 43 625.9900054931641 323 callsubr
          395.99998474121094 245 -55.94999694824219 -62 callgsubr
          896 316 callsubr
          -343 364.99000549316406 hintmask 10110100
          991.9900054931641 803.9799957275391 rmoveto
          hintmask 10110010
          181 callsubr
          hintmask 01101100
          -111 -16 callsubr
          -15 99 callgsubr
          -164 326 callsubr
          247 callgsubr
          hlineto
          74.02000427246094 151 -94 callsubr
          80 hhcurveto
          hintmask 10110100
          451.00999450683594 289 172 callsubr
          hintmask 10110010
          -346 136 callgsubr
          81 callsubr
          328 callgsubr
          hintmask 10110100
          -64 -671 rmoveto
          84 callgsubr
          -50 228 callgsubr
          186.99000549316406 287 callgsubr
          -44 -151 -199 -128 -42 -186.02000427246094 hvcurveto
          endchar
        </CharString>
        <CharString name="C">
          -159 31 callsubr
          298 callsubr
          361 vstem
          895 1545.990005493164 -97 callsubr
        </CharString>
        <CharString name="CR">
          -1351 endchar
        </CharString>
        <CharString name="Cacute">
          -159 31 callsubr
          126.010009765625 43 298 callsubr
          361 vstem
          759.9900054931641 189 callgsubr
          195 callgsubr
          167 callsubr
          -78 callgsubr
          135 -126 -97 callsubr
        </CharString>
        <CharString name="Ccaron">
          -159 31 callsubr
          298 callsubr
          361 vstem
          529.9799957275391 4 callgsubr
          292 callgsubr
          40 callsubr
          365.02000427246094 -390 -97 callsubr
        </CharString>
        <CharString name="Ccedilla">
          -159 -468.99000549316406 221.97999572753906 237.010009765625 43 -41 43 1211.979995727539 299 hstemhm
          52 callsubr
          361 75 -57 callsubr
          hintmask 10111100
          857.9900054931641 1246.990005493164 rmoveto
          150 96.00999450683594 -70 -36 41 hvcurveto
          56 callgsubr
          335.00999450683594 -53 13.990005493164062 rlineto
          21.009994506835938 -51 -94 35 -153.99000549316406 hhcurveto
          -481.02000427246094 -331 -423.02000427246094 -499 -288.99000549316406 314 callsubr
          -292 331.99000549316406 -50.99000549316406 hvcurveto
          3 -29.990005493164062 1 -41 -3 -43 rrcurveto
          -104 -6 170 callsubr
          -21.009994506835938 -103 hhcurveto
          -32 -30 8 8.009994506835938 -17 hvcurveto
          -36 -203 rlineto
          -16.020004272460938 23 164 -18.990005493164062 293 callgsubr
          -41 callgsubr
          132.02000427246094 hvcurveto
          hintmask 11011100
          63 -3 callsubr
          56 callgsubr
          -22 61 vhcurveto
          175 21.970001220703125 140.97999572753906 -12 callsubr
          36 26.990005493164062 -46 249 rcurveline
          -42 callsubr
          -52 -127 -52 -129 hhcurveto
          -198 -77 115 239 hvcurveto
          hintmask 10111100
          304 43 callsubr
          318 291 callsubr
          vhcurveto
          endchar
        </CharString>
        <CharString name="Ccircumflex">
          -159 31 callsubr
          120.010009765625 43 -32 43 hstemhm
          52 callsubr
          361 hintmask 00000000
          hintmask 11101000
          494 164 callsubr
          hintmask 11011000
          93 callsubr
          hintmask 11101000
          213 callgsubr
          hintmask 11011000
          401 -120 -97 callsubr
        </CharString>
        <CharString name="Cdotaccent">
          -147 31 callsubr
          66 363 hstem
          148 callgsubr
          361 243.989990234375 392 vstem
          699.9900054931641 325 callsubr
          75.99000549316406 -26 callsubr
          -2 hvcurveto
          207 -233 rmoveto
          -481.02000427246094 -331 -423.02000427246094 -499 -317.99000549316406 141 callgsubr
          -321.97999572753906 416.99000549316406 217 188.99000549316406 95.97999572753906 -11 callgsubr
          42 hvcurveto
          -46 249 rlineto
          -42 callsubr
          -52 -127 -52 -129 hhcurveto
          -198 -77 115 239 304 43 callsubr
          318 300 150 96.00999450683594 -70 -36 41 hvcurveto
          56 callgsubr
          335.00999450683594 -53 13.990005493164062 rlineto
          21.009994506835938 -51 -94 35 -153.99000549316406 hhcurveto
          endchar
        </CharString>
        <CharString name="D">
          72 125 callgsubr
          309 callgsubr
          hintmask 10101000
          833.9900054931641 1545.990005493164 rmoveto
          hintmask 01011000
          -65 callsubr
          hintmask 10101000
          -4.0099945068359375 56 51 -2.9900054931640625 37 hhcurveto
          573.9900054931641 272 452.9700012207031 495 365.02000427246094 -158 249 -423 hvcurveto
          -215 -1303 26 callsubr
        </CharString>
        <CharString name="Dcaron">
          122 callgsubr
          hstemhm
          1062.990005493164 -11 callsubr
          hintmask 10101000
          953 1599 rmoveto
          371 161 callgsubr
          -286.97999572753906 -52 callsubr
          63 callgsubr
          170 callgsubr
          -53 rmoveto
          hintmask 01011000
          137 callgsubr
          hintmask 10101000
          -31 callsubr
        </CharString>
        <CharString name="Dcroat">
          -81 callsubr
        </CharString>
        <CharString name="E">
          -147 0 -66 callgsubr
          hstem
          -36 callsubr
          1132.990005493164 vstem
          252 callgsubr
          1530 -100 callgsubr
        </CharString>
        <CharString name="Eacute">
          -147 0 -66 callgsubr
          324 callsubr
          -36 callsubr
          1132.990005493164 vstem
          660.9900054931641 189 callgsubr
          195 callgsubr
          167 callsubr
          -78 callgsubr
          -370.02000427246094 250 callgsubr
          -100 callgsubr
        </CharString>
        <CharString name="Ebreve">
          -147 0 -66 callgsubr
          103 217 hstem
          458.99000549316406 49 callgsubr
          vstem
          459 1928.990005493164 77 callsubr
          11 0 12 43 callgsubr
          11 vhcurveto
          -184 hlineto
          -80 -43 callgsubr
          16 2 179 callgsubr
          -77 callsubr
          267 callgsubr
          -187.99000549316406 hlineto
          -5.0200042724609375 -18 -6.9900054931640625 -44 -23 vvcurveto
          -168.02000427246094 -399 -100 callgsubr
        </CharString>
        <CharString name="Ecaron">
          -147 0 -66 callgsubr
          hstem
          -36 callsubr
          1132.990005493164 vstem
          430.97999572753906 4 callgsubr
          292 callgsubr
          -36 callgsubr
          -182.99000549316406 176.99000549316406 -145.02000427246094 -77.99000549316406 rlineto
          -140 -406 -100 callgsubr
        </CharString>
        <CharString name="Ecircumflex">
          -147 0 -66 callgsubr
          164 callgsubr
          -36 callsubr
          1132.990005493164 hintmask 00000000
          hintmask 11110100
          395 164 callsubr
          hintmask 11101100
          93 callsubr
          hintmask 11110100
          213 callgsubr
          hintmask 11101100
          -104.02000427246094 -135.99000549316406 -100 callgsubr
        </CharString>
        <CharString name="Edieresis">
          -147 0 -66 callgsubr
          194 callgsubr
          hstem
          371.99000549316406 203 callsubr
          vstem
          372 296 callgsubr
          72 -61 callgsubr
          80 hhcurveto
          -48 callsubr
          57.02000427246094 96 callgsubr
          -61 62 callgsubr
          -69 144 callgsubr
          473.99000549316406 hmoveto
          235 callgsubr
          69.02000427246094 -61 callgsubr
          81 hhcurveto
          316 callgsubr
          38 callsubr
          -65.99000549316406 284 callsubr
          -555.0099945068359 -268.97999572753906 -100 callgsubr
        </CharString>
        <CharString name="Edotaccent">
          -147 0 -66 callgsubr
          62 callsubr
          588.9799957275391 392 hintmask 00000000
          hintmask 11111000
          588.9799957275391 1779 rmoveto
          61 callgsubr
          99.99000549316406 hhcurveto
          143 -36 callsubr
          91.00999450683594 111 3 hvcurveto
          87 2 -38 callsubr
          74 -117 hhcurveto
          -124.00999450683594 17 callsubr
          -2 hvcurveto
          -298 -249 -100 callgsubr
        </CharString>
        <CharString name="Egrave">
          -147 0 -66 callgsubr
          324 callsubr
          -36 callsubr
          1132.990005493164 vstem
          398.99000549316406 61 callsubr
          196 -140 97 -36 143 60 callsubr
          -108.02000427246094 -296.97999572753906 -100 callgsubr
        </CharString>
        <CharString name="Emacron">
          -147 0 -66 callgsubr
          176.989990234375 111 callgsubr
          hstem
          -36 callsubr
          1132.990005493164 vstem
          506.97999572753906 188 callgsubr
          116 callgsubr
          -577 hlineto
          -216 -385.99000549316406 -100 callgsubr
        </CharString>
        <CharString name="Eng">
          161 24 callsubr
          -34 callsubr
          1412.990005493164 vstem
          1154.990005493164 1530 rmoveto
          -97 -792 -13 -260.02000427246094 73 callsubr
          260.02000427246094 -355.99000549316406 792 rlineto
          -307.02000427246094 hlineto
          -219 18 callsubr
          327.99000549316406 -786 -22 -147.99000549316406 -69 -92 -232 -93 rlinecurve
          57 -128 348 25 200 290 callgsubr
          35 194 rlinecurve
          219 264 callsubr
          endchar
        </CharString>
        <CharString name="Eogonek">
          -135 7 callsubr
          466.97999572753906 -66 callgsubr
          hstemhm
          -34 callsubr
          1132.990005493164 -664.0000152587891 281 hintmask 01111100
          1180 1254.990005493164 rmoveto
          -50 callgsubr
          275 rlineto
          -914 hlineto
          301 callsubr
          745 hlineto
          hintmask 01111010
          -10 callgsubr
          -41 -180.02000427246094 90 callgsubr
          -144.02000427246094 vvcurveto
          -105 84 204 callsubr
          103 40 83 81 vhcurveto
          hintmask 10111010
          162 callgsubr
          -44 90 callsubr
          -42 75 callgsubr
          180 callsubr
          hhcurveto
          -39.02000427246094 -28 28 callsubr
          -7 248 callgsubr
          37 279 -9 callgsubr
          421.00999450683594 -75 callgsubr
          rlineto
          hintmask 01111100
          562.0200042724609 -91 callgsubr
          rlineto
          endchar
        </CharString>
        <CharString name="Eth">
          -81 callsubr
        </CharString>
        <CharString name="Euro">
          38 -94 callsubr
          231.97999572753906 307.99000549316406 182 154.010009765625 289 callsubr
          249.99998474121094 254 hstem
          23 1286 vstem
          994.9799957275391 1545.990005493164 rmoveto
          -320 -263.97999572753906 -193 -311.00999450683594 -121 hvcurveto
          -203 hlineto
          -19 -181.99000549316406 rlineto
          148 callsubr
          hlineto
          -8.990005493164062 -49 -7 -52 -91 callgsubr
          -53 rrcurveto
          -179.02000427246094 hlineto
          -18.990005493164062 -182 rlineto
          202 hlineto
          -278 30 148.99000549316406 -261.97999572753906 374 hhcurveto
          56 callsubr
          165 74.97000122070312 1 callsubr
          71 hvcurveto
          -70 200.99000549316406 rlineto
          -61.99000549316406 -80 82 callsubr
          -62.02000427246094 90 callgsubr
          hhcurveto
          -163 -83 319 callsubr
          290 callgsubr
          -18 hvcurveto
          489 hlineto
          131 callsubr
          182 rlineto
          -505 hlineto
          4 54 7 51 10.020004272460938 49 rrcurveto
          504 hlineto
          19 289 callsubr
          rlineto
          -464.02000427246094 hlineto
          153 72 114 97 147 hhcurveto
          113 106 -41 -28 24.990005493164062 hvcurveto
          74.02000427246094 269 rlineto
          23 -78 -70 31 -166.02000427246094 hhcurveto
          endchar
        </CharString>
        <CharString name="F">
          200 callsubr
          hstem
          -36 callsubr
          1075.990005493164 vstem
          252 callgsubr
          1530 54 callsubr
        </CharString>
        <CharString name="G">
          76 -74 callsubr
          hstem
          105 callgsubr
          vstem
          726 570 rmoveto
          -88 callgsubr
          -99 callsubr
          endchar
        </CharString>
        <CharString name="Gbreve">
          88 -74 callsubr
          87.00001525878906 217 hstem
          86 358.99000549316406 183 49 callgsubr
          vstem
          951.9900054931641 1632.990005493164 rmoveto
          255 109 188 -2 callsubr
          11 0 12 -1 11 hvcurveto
          -183.99000549316406 hlineto
          -80 -43 callgsubr
          16 2 179 callgsubr
          -77 callsubr
          267 callgsubr
          -187.99000549316406 hlineto
          -5.0200042724609375 -18 -6.9900054931640625 -44 -23 vvcurveto
          78 callsubr
          vhcurveto
          -214 -1063 -94 callgsubr
          endchar
        </CharString>
        <CharString name="Gcaron">
          76 -74 callsubr
          hstem
          105 callgsubr
          vstem
          979.9900054931641 1599 rmoveto
          331 callsubr
          -147.99000549316406 15 callgsubr
          -145.02000427246094 -77.99000549316406 63 callgsubr
          -104 -342.02000427246094 rmoveto
          -99 callsubr
          -88 callgsubr
          endchar
        </CharString>
        <CharString name="Gcircumflex">
          76 -74 callsubr
          120.00001525878906 43 -32 43 hstemhm
          105 callgsubr
          hintmask 11101100
          986.9900054931641 1765.990005493164 rmoveto
          -53 callsubr
          hintmask 11110100
          213 callgsubr
          hintmask 11101100
          179 callsubr
          -59 callgsubr
          287 167 rlineto
          -261 -1196 rmoveto
          -88 callgsubr
          -99 callsubr
          endchar
        </CharString>
        <CharString name="Gcommaaccent">
          88 -559.9900054931641 43 501 264.99000549316406 320.99000549316406 83 callsubr
          407.00999450683594 289.00999450683594 hstem
          86 358.99000549316406 210 258 vstem
          738 570 -94 callgsubr
          16 -607 16 callsubr
        </CharString>
        <CharString name="Gdotaccent">
          88 -74 callsubr
          65.99000549316406 363 hstem
          86 358.99000549316406 312.989990234375 392 vstem
          931.9799957275391 1611.979995727539 rmoveto
          -7 callgsubr
          61 callgsubr
          288 callgsubr
          hhcurveto
          -193.99000549316406 -1041.990005493164 -94 callgsubr
          endchar
        </CharString>
        <CharString name="Gtilde">
          76 -74 callsubr
          46.00001525878906 -19 callsubr
          105 callgsubr
          hintmask 00000000
          hintmask 11110010
          1320 1945.990005493164 rmoveto
          -52 -42 -45 -58 -83 hhcurveto
          hintmask 11101110
          -110 -27.009994506835938 144 -56 callgsubr
          195 callsubr
          -45 hvcurveto
          105.99000549316406 -136 42 44 54 46 68 -1 rlinecurve
          hintmask 11110010
          -2.9900054931640625 133 5 -141 196.02000427246094 177 callgsubr
          hintmask 11101010
          -444 -689 rmoveto
          -99 callsubr
          -88 callgsubr
          endchar
        </CharString>
        <CharString name="H">
          149 0 43 578.9900054931641 -57 callsubr
          623.0499877929688 207 callsubr
          224 callgsubr
          1412.990005493164 vstem
          1114.990005493164 1530 18 callgsubr
        </CharString>
        <CharString name="Hbar">
          161 0 43 397.99000549316406 251 225 251 321.0399932861328 207 callsubr
          -1 1639.990005493164 vstem
          1638.990005493164 1167.990005493164 rmoveto
          -194 hlineto
          52 362 rlineto
          315 callsubr
          hlineto
          -52 -362 rlineto
          -482 hlineto
          52 362 80 callgsubr
          -52 -362 rlineto
          -227 hlineto
          -24.979995727539062 -251 rlineto
          216 hlineto
          -131 -916.9900054931641 rlineto
          354 hlineto
          63 441 rlineto
          482.02000427246094 hlineto
          274 callsubr
          -441 rlineto
          358.00999450683594 hlineto
          130.99000549316406 916.9900054931641 rlineto
          204 hlineto
          -38 callgsubr
          251 rlineto
          -620.0099945068359 -476 rmoveto
          -482 hlineto
          32 225 rlineto
          482 hlineto
          -32 -225 rlineto
          endchar
        </CharString>
        <CharString name="Hcircumflex">
          149 0 43 578.9900054931641 -57 callsubr
          623.0499877929688 -104 callsubr
          164 callgsubr
          224 callgsubr
          1412.990005493164 hintmask 11101100
          937.9799957275391 1765.990005493164 rmoveto
          -5 callsubr
          hintmask 11110100
          213 callgsubr
          hintmask 11101100
          139 callsubr
          286.97999572753906 167 rlineto
          177 -236 18 callgsubr
        </CharString>
        <CharString name="I">
          -645 24 callsubr
          98 572.9799957275391 vstem
          316.97999572753906 1530 -84 callgsubr
          endchar
        </CharString>
        <CharString name="I.uc">
          -49 callgsubr
        </CharString>
        <CharString name="IJ">
          52 24 callsubr
          98 1275 vstem
          316.97999572753906 1530 -30 callgsubr
        </CharString>
        <CharString name="IJ_acutecomb">
          52 256 callsubr
          98 1469.990005493164 vstem
          401.97999572753906 189 callgsubr
          143 -122 97 -78 callgsubr
          677 hmoveto
          143 -122 275 callsubr
          -78 callgsubr
          -762 250 callgsubr
          -30 callgsubr
        </CharString>
        <CharString name="Iacute">
          -645 256 callsubr
          98 792.9799957275391 vstem
          401.97999572753906 189 callgsubr
          143 -122 97 -78 callgsubr
          -85 250 callgsubr
          -84 callgsubr
          endchar
        </CharString>
        <CharString name="Ibreve">
          -645 -91 callsubr
          103 217 hstem
          199.99000549316406 147 callsubr
          199.99000549316406 -14 callgsubr
          117 -399 -84 callgsubr
          endchar
        </CharString>
        <CharString name="Icircumflex">
          -645 -91 callsubr
          164 callgsubr
          98 800.9900054931641 hintmask 00000000
          hintmask 11101000
          209 callgsubr
          164 callsubr
          hintmask 11011000
          139 callsubr
          286.97999572753906 167 -5 callsubr
          hintmask 11101000
          213 callgsubr
          hintmask 11011000
          181 -135.99000549316406 -84 callgsubr
          endchar
        </CharString>
        <CharString name="Idieresis">
          -645 -91 callsubr
          194 callgsubr
          hstem
          272 callgsubr
          339 135 198 callgsubr
          vstem
          272 callgsubr
          296 callgsubr
          72 -61 callgsubr
          80 hhcurveto
          -44 callsubr
          474.00999450683594 hmoveto
          235 callgsubr
          69 -84.00999450683594 81 hhcurveto
          217 callgsubr
          -10 callgsubr
          hhcurveto
          -113.00999450683594 -66.00999450683594 144 callgsubr
          -270.00999450683594 -268.97999572753906 -84 callgsubr
          endchar
        </CharString>
        <CharString name="Idotaccent">
          -49 callgsubr
        </CharString>
        <CharString name="Igrave">
          -645 256 callsubr
          98 572.9799957275391 vstem
          139.97999572753906 61 callsubr
          210 callgsubr
          -140 97 -36 -2 callgsubr
          60 callsubr
          177 -296.97999572753906 -84 callgsubr
          endchar
        </CharString>
        <CharString name="Imacron">
          -645 -91 callsubr
          176.989990234375 111 callgsubr
          hstem
          98 726.9900054931641 vstem
          100 callsubr
          41 callsubr
          69 -385.99000549316406 -84 callgsubr
          endchar
        </CharString>
        <CharString name="Iogonek">
          -645 7 callsubr
          466.97999572753906 297 callgsubr
          -165.99000549316406 280.97999572753906 hintmask 00000000
          hintmask 01111000
          360.97999572753906 hmoveto
          91.00999450683594 hlineto
          219 -24 callsubr
          -354 326 callsubr
          12 hlineto
          82 callsubr
          -41 -179.97999572753906 90 callgsubr
          -144.02000427246094 vvcurveto
          -105 -34 callsubr
          -41 callsubr
          316 callgsubr
          145.02000427246094 287 callsubr
          40 83 81 vhcurveto
          hintmask 10111000
          65 callgsubr
          hvcurveto
          hintmask 01111000
          64 110 73 callgsubr
          209 callgsubr
          -16 callgsubr
          vhcurveto
          endchar
        </CharString>
        <CharString name="Itilde">
          -645 -91 callsubr
          62 -19 callsubr
          98 924.9900054931641 hintmask 11011100
          118.99000549316406 160 callgsubr
          53.99000549316406 46 270 callgsubr
          -1 rlinecurve
          hintmask 11100100
          184 callgsubr
          -27 callsubr
          17 callgsubr
          hintmask 11011100
          -110 171 callsubr
          144 -172 hhcurveto
          -110.99000549316406 -150.02000427246094 -106 -91 -45 hvcurveto
          198 223 callgsubr
          -84 callgsubr
          endchar
        </CharString>
        <CharString name="J">
          -654 1489.0299987792969 207 callsubr
          -179.99000549316406 846.9900054931641 vstem
          310.97999572753906 1530 -15 callsubr
        </CharString>
        <CharString name="Jcircumflex">
          -654 1489.0299987792969 -104 callsubr
          164 callgsubr
          -179.99000549316406 1056.990005493164 hintmask 00000000
          hintmask 11010000
          113.99000549316406 164 callsubr
          hintmask 10110000
          179 callsubr
          -59 callgsubr
          287 167 -5 callsubr
          hintmask 11010000
          213 callgsubr
          hintmask 10110000
          197 -135.99000549316406 -15 callsubr
        </CharString>
        <CharString name="K">
          -14 -1 43 -42 297 callgsubr
          -36 callsubr
          1408 hintmask 01110000
          873.9799957275391 214 callsubr
          -526 -662.0200042724609 95 662.0200042724609 rlineto
          -354.02000427246094 hlineto
          -218.99000549316406 154 callsubr
          hintmask 10110000
          65 -149 58 -131 17 146 callgsubr
          hintmask 01110000
          238 callgsubr
          endchar
        </CharString>
        <CharString name="Kcommaaccent">
          -2 -557.9900054931641 43 513.9900054931641 43 -42 297 callgsubr
          551.9900054931641 226 callsubr
          hintmask 10111000
          885.9900054931641 214 callsubr
          -526.0099945068359 -662.0200042724609 95 662.0200042724609 rlineto
          -354.02000427246094 hlineto
          -219 154 callsubr
          hintmask 11011000
          64.99000549316406 -149 58 -131 17.020004272460938 146 callgsubr
          hintmask 10111000
          238 callgsubr
          -234.99000549316406 -891.9900054931641 216 callgsubr
          -71.99000549316406 -46 -44 -23.020004272460938 310 callgsubr
          -26 callgsubr
          231 callgsubr
          19 53 callgsubr
          121 148 callsubr
          vvcurveto
          105 172 callgsubr
          88 -91 19 vhcurveto
          endchar
        </CharString>
        <CharString name="L">
          -283 0 47 callgsubr
          hstem
          -36 callsubr
          889.9900054931641 vstem
          252 callgsubr
          1530 -55 callsubr
          endchar
        </CharString>
        <CharString name="Lacute">
          -271 0 47 callgsubr
          144.00999450683594 43 hstem
          -34 callsubr
          889.9900054931641 vstem
          420.99000549316406 1673.990005493164 rmoveto
          143 -122 97 -78 callgsubr
          -118 -144 122 callsubr
          endchar
        </CharString>
        <CharString name="Lcaron">
          -271 0 47 callgsubr
          hstem
          882.9900054931641 263 vstem
          841.9900054931641 1059.979995727539 rmoveto
          6 168 callsubr
          151 224 callsubr
          rlineto
          111 callsubr
          101 320 callgsubr
          199 156 vvcurveto
          80 -13 82 1 callgsubr
          149 callgsubr
          vhcurveto
          -228.99000549316406 -48 -19 -42 rlineto
          101 callsubr
          -30 4.0200042724609375 -10 callgsubr
          -75 vvcurveto
          -116 -18 -122.02000427246094 -23 -63 vhcurveto
          -551.0200042724609 470.02000427246094 -55 callsubr
          endchar
        </CharString>
        <CharString name="Lcommaaccent">
          -271 -557.9900054931641 43 320 callsubr
          47 callgsubr
          hstem
          -11 callsubr
          258 vstem
          269 callgsubr
          1530 122 callsubr
          -6.9900054931640625 -1761.990005493164 rmoveto
          40 -4 28 -47 -50 vvcurveto
          -71.99000549316406 -46 -44 -23 -13 vhcurveto
          -3 -26 callgsubr
          231 callgsubr
          19 141 callgsubr
          121 148 callsubr
          vvcurveto
          105 -68.02000427246094 88 -90.99000549316406 19 vhcurveto
          145 callgsubr
          endchar
        </CharString>
        <CharString name="Ldot">
          -175 0 282.5 464.47999572753906 367 375.0500030517578 -62 callgsubr
          -36 callsubr
          1101 -369.010009765625 369 hintmask 11110000
          252 callgsubr
          1530 -55 callsubr
          hintmask 11101000
          721.0200042724609 -416.00999450683594 rmoveto
          -129 -79.02000427246094 -102.99000549316406 -112 -89.00999450683594 59 -63 167 callsubr
          316 callgsubr
          81 callsubr
          87 131 80 -43 69 -27 callgsubr
          hvcurveto
          endchar
        </CharString>
        <CharString name="Lslash">
          -271 -77 callsubr
          282.52000427246094 1206.5099792480469 207 callsubr
          -31 1014.9799957275391 vstem
          532.9900054931641 665.9900054931641 rmoveto
          450.99000549316406 154 -57 192.99000549316406 -362.99000549316406 -127 93 646 80 callgsubr
          -110.97999572753906 -776.9900054931641 -223 289 callgsubr
          58 -184 134 46 -77 -537 rlineto
          848 hlineto
          42 288.00999450683594 187 callsubr
          56 100 callgsubr
          rlineto
          endchar
        </CharString>
        <CharString name="M">
          254 callsubr
          hstemhm
          -31 1927.979995727539 hintmask 01110000
          387.99000549316406 1530 199 callgsubr
          hintmask 10110000
          124 callsubr
          hintmask 01110000
          54 callgsubr
          -514.9900054931641 hlineto
          endchar
        </CharString>
        <CharString name="N">
          149 24 callsubr
          -36 callsubr
          1412.990005493164 vstem
          252 callgsubr
          1530 -85 callgsubr
          endchar
        </CharString>
        <CharString name="NULL">
          -1351 endchar
        </CharString>
        <CharString name="Nacute">
          161 256 callsubr
          -34 callsubr
          1412.990005493164 vstem
          757.9900054931641 189 callgsubr
          143 -122 97 36 -27 callsubr
          140 53 29 callgsubr
          -210 41 callgsubr
          rlineto
          -455 250 callgsubr
          -84 callsubr
          endchar
        </CharString>
        <CharString name="Ncaron">
          161 24 callsubr
          -34 callsubr
          1412.990005493164 vstem
          547.9799957275391 -20 callsubr
          -245 -406 -84 callsubr
          endchar
        </CharString>
        <CharString name="Ncommaaccent">
          161 60 callgsubr
          1446.0299987792969 207 callsubr
          608.9900054931641 226 callsubr
          vstem
          269 callgsubr
          1530 -84 callsubr
          238.02000427246094 -1764 rmoveto
          40 -4 28 -47 -50 vvcurveto
          -72 -46 -44 -23 -13 vhcurveto
          -3 65 callsubr
          172 callgsubr
          88 -91 123 callgsubr
        </CharString>
        <CharString name="Ntilde">
          161 -91 callsubr
          62 -19 callsubr
          -34 callsubr
          1412.990005493164 hintmask 11011100
          494.97999572753906 102 callgsubr
          117 143.99000549316406 113.99000549316406 95.00999450683594 202 callsubr
          85 callsubr
          -192 223 callgsubr
          -84 callsubr
          endchar
        </CharString>
        <CharString name="O">
          92 callgsubr
          65.99000549316406 577.9900054931641 -105 callgsubr
        </CharString>
        <CharString name="OE">
          860 11 callgsubr
          -250 -66 callgsubr
          -249.99000549316406 265.99000549316406 159 callsubr
          hintmask 01110100
          2175 1254.990005493164 rmoveto
          -50 callgsubr
          275 rlineto
          -914 hlineto
          74 callsubr
          -216 rlineto
          hintmask 10101100
          140.99000549316406 -88 -149 91.00999450683594 -209 304 callsubr
          -446.00999450683594 -522 -325 183 -268.97999572753906 368.99000549316406 200 165 80.97000122070312 134 247 callsubr
          hvcurveto
          hintmask 01110100
          -28 -198.97999572753906 33 callgsubr
          hintmask 10101100
          -1529.020004272461 -1005 rmoveto
          -139.99000549316406 -76 81 264.99000549316406 305.00999450683594 -48 callsubr
          379 223 141 76 -80.02000427246094 -264.99000549316406 33 callsubr
          hvcurveto
          endchar
        </CharString>
        <CharString name="Oacute">
          -58 callsubr
          126 43 hstem
          -65 callgsubr
          vstem
          768.9799957275391 189 callgsubr
          143 -122 97 -78 callgsubr
          -703 -1094 -105 callgsubr
        </CharString>
        <CharString name="Obreve">
          -58 callsubr
          87 217 159 callsubr
          136.97999572753906 -27 callsubr
          237.02000427246094 -11 callsubr
          -293.99000549316406 132 callgsubr
          hintmask 11111100
          566.9900054931641 1928.990005493164 96 callsubr
          vhcurveto
          hintmask 11111010
          255.02000427246094 109 188 -2 callsubr
          11 0 12 -1 11 hvcurveto
          -184 hlineto
          -80 -13 -32 -29 callgsubr
          hintmask 11111100
          265 callsubr
          -501 -1351 -105 callgsubr
        </CharString>
        <CharString name="Ocircumflex">
          -58 callsubr
          120 43 -32 43 hstemhm
          -65 callgsubr
          hintmask 00000000
          hintmask 11101100
          502.99000549316406 164 callsubr
          hintmask 11011100
          139 callsubr
          286.97999572753906 167 -5 callsubr
          hintmask 11101100
          213 callgsubr
          hintmask 11011100
          -437 -1088 -105 callgsubr
        </CharString>
        <CharString name="Odieresis">
          -58 callsubr
          85.989990234375 363 159 callsubr
          49.97999572753906 162 callsubr
          198 callgsubr
          -292.97999572753906 263 callgsubr
          hintmask 11111100
          479.99000549316406 296 callgsubr
          72.00999450683594 -61 callgsubr
          80 hhcurveto
          -44 callsubr
          474.00999450683594 hmoveto
          235 callgsubr
          69 -84.00999450683594 81 hhcurveto
          103 callgsubr
          -91 callgsubr
          hvcurveto
          hintmask 11110010
          -888.0099945068359 -1221 -105 callgsubr
        </CharString>
        <CharString name="Ograve">
          -58 callsubr
          126 43 hstem
          -65 callgsubr
          vstem
          506.97999572753906 61 callsubr
          210 callgsubr
          -140 97 -36 -2 callgsubr
          60 callsubr
          -441 -1248.990005493164 -105 callgsubr
        </CharString>
        <CharString name="Ohungarumlaut">
          -58 callsubr
          99.00999450683594 43 hstem
          -65 callgsubr
          vstem
          479.99000549316406 1644.990005493164 rmoveto
          123 191 callgsubr
          -284 -368.99000549316406 rlineto
          494 121 callsubr
          -908 -1067 -105 callgsubr
        </CharString>
        <CharString name="Omacron">
          -58 callsubr
          160.989990234375 111 callgsubr
          hstem
          -65 callgsubr
          vstem
          321 callgsubr
          41 callsubr
          -549 -1338 -105 callgsubr
        </CharString>
        <CharString name="Oslash">
          239 callsubr
          hstem
          -65 callgsubr
          vstem
          1182.990005493164 1417.990005493164 -83 callgsubr
        </CharString>
        <CharString name="Oslashacute">
          239 callsubr
          124.02000427246094 43 hstem
          -65 callgsubr
          vstem
          1146.979995727539 1826.979995727539 rmoveto
          -210 41 callgsubr
          143 -122 97 203 callgsubr
          36 -408.99000549316406 -83 callgsubr
        </CharString>
        <CharString name="Otilde">
          -58 callsubr
          46 -19 callsubr
          -65 callgsubr
          hintmask 11011110
          485.99000549316406 160 callgsubr
          53.99000549316406 46 270 callgsubr
          -1 rlinecurve
          hintmask 11100110
          184 callgsubr
          196 17 callgsubr
          hintmask 11011110
          215 callsubr
          -420 -1205 -105 callgsubr
        </CharString>
        <CharString name="P">
          -53 0 43 443.99000549316406 264.99000549316406 547.9999847412109 97 callgsubr
          hstemhm
          963.9900054931641 348.99000549316406 hintmask 00000000
          hintmask 11011000
          290 1530 240 callsubr
          149 callsubr
          72 -91 callgsubr
          70 hhcurveto
          282 callgsubr
          hintmask 11101000
          283 callgsubr
          hintmask 11011000
          -133 -118 -16 -77.99000549316406 hhcurveto
          -156 hlineto
          373 -778.0200042724609 rmoveto
          -48 -57 5 7 -24 hvcurveto
          hintmask 11101000
          76.97999572753906 526 rlineto
          5 29.029998779296875 44.99000549316406 192 callgsubr
          hintmask 11011000
          -205 -12 -97 87 callsubr
          -192 hhcurveto
          endchar
        </CharString>
        <CharString name="Q">
          44 -420 278.99000549316406 132.01998901367188 43 -40.00999450683594 43 1243 265.99000549316406 159 callsubr
          41.49000549316406 243.50999450683594 284.99000549316406 263 callgsubr
          hintmask 11011110
          715 -8.990005493164062 rmoveto
          407.97999572753906 55.970001220703125 241 415 484 vvcurveto
          326 -181 274 -362 vhcurveto
          hintmask 10111010
          -471.99000549316406 -283.00999450683594 -446.00999450683594 -522 292 callgsubr
          143 -244 287.99000549316406 -52.97999572753906 hvcurveto
          hintmask 10111110
          -328.99000549316406 -107.99000549316406 250 223 callsubr
          233 hhcurveto
          127 199 46 56.02000427246094 58.99000549316406 hvcurveto
          203 vlineto
          -20 -70 5 callsubr
          -6 -128 hhcurveto
          hintmask 11011110
          -150 -94 18 43 callsubr
          13 hvcurveto
          hintmask 10111010
          68 1288.990005493164 rmoveto
          141 76 -80.02000427246094 -264.99000549316406 33 callsubr
          -139.99000549316406 -76 81 264.99000549316406 305.00999450683594 -48 callsubr
          379 223 hvcurveto
          endchar
        </CharString>
        <CharString name="R">
          -7 39 callgsubr
          hstemhm
          983.9799957275391 345 hintmask 11101000
          1002.9900054931641 640.9799957275391 11 callsubr
          -399.02000427246094 vhcurveto
          hintmask 11011000
          -21 callsubr
          hintmask 11101000
          3 callsubr
        </CharString>
        <CharString name="Racute">
          -7 39 callgsubr
          142 43 hstemhm
          983.9799957275391 345 hintmask 11101100
          1192.979995727539 1826.979995727539 rmoveto
          -209.99000549316406 41 callgsubr
          142.99000549316406 173 callgsubr
          -190 -1186 11 callsubr
          -399.02000427246094 vhcurveto
          hintmask 11011100
          -21 callsubr
          hintmask 11101100
          3 callsubr
        </CharString>
        <CharString name="Rcaron">
          5 39 callgsubr
          hstemhm
          995.9799957275391 345 hintmask 11101000
          878 1599 rmoveto
          371 161 callgsubr
          -286.97999572753906 -52 callsubr
          63 callgsubr
          136.99000549316406 -958.0200042724609 11 callsubr
          -399.00999450683594 vhcurveto
          hintmask 11011000
          -25 callgsubr
          hintmask 11101000
          9 callsubr
          endchar
        </CharString>
        <CharString name="Rcommaaccent">
          5 -559.9900054931641 43 516.9900054931641 42 callgsubr
          hstemhm
          542.9799957275391 258 195 345 hintmask 11110110
          1014.9900054931641 640.9799957275391 11 callsubr
          -399.00999450683594 vhcurveto
          hintmask 11101110
          -25 callgsubr
          hintmask 11110110
          9 callsubr
          150 callgsubr
          -881.9900054931641 37 callsubr
          272 callsubr
          -9 callsubr
          vhcurveto
          endchar
        </CharString>
        <CharString name="S">
          -293 -94 callsubr
          5 callgsubr
          hstem
          113 callgsubr
          vstem
          115 367.97999572753906 -101 callsubr
        </CharString>
        <CharString name="Sacute">
          -293 -94 callsubr
          5 callgsubr
          126.00999450683594 43 hstem
          113 callgsubr
          vstem
          569 189 callgsubr
          195 callgsubr
          97 -78 callgsubr
          -454 -1304 -101 callsubr
        </CharString>
        <CharString name="Scaron">
          -293 -94 callsubr
          5 callgsubr
          hstem
          113 callgsubr
          vstem
          198 callgsubr
          -20 callsubr
          209 callsubr
          -1568.009994506836 -101 callsubr
        </CharString>
        <CharString name="Scedilla">
          -293 193 callsubr
          233 5 callgsubr
          hstemhm
          167.99000549316406 338 -115.010009765625 -57 callsubr
          -22.990005493164062 362 hintmask 11110100
          697 878.9799957275391 rmoveto
          -110 87 -83 69.02000427246094 2 148 callgsubr
          rrcurveto
          71 0.9900054931640625 56.02000427246094 66.00999450683594 129 hhcurveto
          -41 callgsubr
          112 -41 -46 46 hvcurveto
          112 280.97999572753906 rlineto
          37 -52 -134 48 -175 hhcurveto
          -322 -211.99000549316406 -178 -279 -186 134 -142.99000549316406 122 -92 hvcurveto
          144 -21 callgsubr
          46 -51 -2 -88 rrcurveto
          -84.99000549316406 -91 callgsubr
          -51.02000427246094 -68 -151 hhcurveto
          101 callgsubr
          -129 52 48.99000549316406 -63 hvcurveto
          -119.99000549316406 -287.99000549316406 rlineto
          hintmask 11101000
          -37 45.97999572753906 71 callgsubr
          2 -29 0 -38.02000427246094 -2 -41 rrcurveto
          -104 -6 170 callsubr
          -21 -103 hhcurveto
          -32 55 callsubr
          69 -24 116 -23.979995727539062 56.99000549316406 hvcurveto
          hintmask 11110100
          237 52 150 153 249 vvcurveto
          -3 callgsubr
          vhcurveto
          endchar
        </CharString>
        <CharString name="Scircumflex">
          -293 -94 callsubr
          5 callgsubr
          120.00999450683594 43 -32 43 hstemhm
          113 callgsubr
          hintmask 00000000
          hintmask 11101100
          269 callgsubr
          164 callsubr
          hintmask 11011100
          148 121 callgsubr
          hintmask 11101100
          -371.02000427246094 -348 rlineto
          hintmask 11011100
          -187.99000549316406 -1298 -101 callsubr
        </CharString>
        <CharString name="Scommaaccent">
          -281 -559.9900054931641 43 501 5 callgsubr
          hstemhm
          179.99000549316406 337.97999572753906 -107.99000549316406 258 -44 362 hintmask 11110100
          127 367.97999572753906 rmoveto
          -120.02000427246094 -287.99000549316406 rlineto
          -37 46 71 callgsubr
          69 callsubr
          -77 callsubr
          148 callgsubr
          rrcurveto
          71 1 56.02000427246094 66.00999450683594 129 hhcurveto
          -41 callgsubr
          112 -41 -46 46 hvcurveto
          112 280.97999572753906 rlineto
          37 -52 -134 48 -175 hhcurveto
          -322 -211.99000549316406 -178 -279 -186 134 -142.99000549316406 122 -92 hvcurveto
          144 -21 callgsubr
          46 -51 -2 -88 rrcurveto
          -84.99000549316406 -91 callgsubr
          -51.02000427246094 -68 -151 hhcurveto
          101 callgsubr
          -129 52 48.99000549316406 -63 hvcurveto
          hintmask 11101000
          215 -601.9799957275391 27 callsubr
        </CharString>
        <CharString name="T">
          -198 0 295 callsubr
          209 callgsubr
          1110.990005493164 vstem
          494.97999572753906 1265.990005493164 rmoveto
          -180.99000549316406 -1265.990005493164 rlineto
          360 183 callsubr
          -44 -275 359 11 rlineto
          endchar
        </CharString>
        <CharString name="Tbar">
          -186 0 43 591.9799957275391 251 374.52000427246094 240 callgsubr
          1218.990005493164 1254.990005493164 rmoveto
          40 275 rlineto
          -1066.990005493164 hlineto
          -44.02000427246094 -275 359 11 -53.99000549316406 -380 rlineto
          -235 hlineto
          -30 -251 rlineto
          229 hlineto
          272 callsubr
          -634.9799957275391 rlineto
          360.02000427246094 hlineto
          91 634.9799957275391 rlineto
          250 hlineto
          31 251 rlineto
          -245 hlineto
          53.99000549316406 380 352.02000427246094 -11 rlineto
          endchar
        </CharString>
        <CharString name="Tcaron">
          -186 0 43 1217.5 240 callgsubr
          395 144 callsubr
          168 callgsubr
          -337 rlineto
          180 hlineto
          331 callsubr
          -147.99000549316406 15 callgsubr
          -145 -77.99000549316406 rlineto
          111.99000549316406 -670 -23 callgsubr
          endchar
        </CharString>
        <CharString name="Thorn">
          -45 0 43 214.97999572753906 265.00999450683594 518.9900054931641 246 201.0500030517578 207 callsubr
          939.9900054931641 346.99000549316406 vstem
          1286.979995727539 862.9900054931641 rmoveto
          280 -1 -192.99000549316406 145 -344 hhcurveto
          -46 226 callgsubr
          -2 -76 callgsubr
          -41.99000549316406 hvcurveto
          35 247 rlineto
          -360.02000427246094 hlineto
          -215 -1530 rlineto
          361 hlineto
          38 269.97999572753906 rlineto
          -2 24 -48 callgsubr
          -10 65 hhcurveto
          424 233 275 330 -1 hvcurveto
          -346.99000549316406 74 callsubr
          rmoveto
          -193 -12 -99 -116 -192 hhcurveto
          -46 -54 4 7 168 callsubr
          hvcurveto
          70.97999572753906 506 2 -3 rlineto
          5 29 44.99000549316406 0 -38 callgsubr
          hhcurveto
          199.99000549316406 63.02000427246094 -80 276 callgsubr
          -8 hvcurveto
          endchar
        </CharString>
        <CharString name="U">
          -67 callgsubr
          302 callgsubr
          128 596.9900054931641 -107 callgsubr
        </CharString>
        <CharString name="Uacute">
          -67 callgsubr
          142 43 302 callgsubr
          748.9900054931641 189 callgsubr
          143 -122 275 callsubr
          -78 callgsubr
          -620.9900054931641 -1075 -107 callgsubr
        </CharString>
        <CharString name="Ubreve">
          -67 callgsubr
          103 217 313 callgsubr
          69.97000122070312 196 307.00999450683594 299 callsubr
          546.9700012207031 1928.990005493164 242 callsubr
          240 255 132 callsubr
          188 -2 callsubr
          11 0 12 -1 11 vhcurveto
          -184 hlineto
          -80 -43 callgsubr
          16 -77 callsubr
          179 callgsubr
          2 267 callgsubr
          -188 hlineto
          265 callsubr
          -418.97999572753906 -1332 -107 callgsubr
        </CharString>
        <CharString name="Ucircumflex">
          -67 callgsubr
          164 callgsubr
          294 callgsubr
          hintmask 00000000
          hintmask 11101000
          482.97999572753906 164 callsubr
          hintmask 11011000
          139 callsubr
          287.00999450683594 106 callgsubr
          hintmask 11011000
          -354.97999572753906 -1069 -107 callgsubr
        </CharString>
        <CharString name="Udieresis">
          -67 callgsubr
          194 callgsubr
          hstemhm
          294 callgsubr
          -17.020004272460938 162 callsubr
          339 hintmask 00000000
          hintmask 11101100
          459.97999572753906 305 callsubr
          104 callsubr
          -61 callgsubr
          302 callsubr
          -48 callsubr
          57.02000427246094 91 111 1.9900054931640625 64 callgsubr
          287 callgsubr
          hhcurveto
          273 callgsubr
          38 callsubr
          -65.99000549316406 284 callsubr
          hintmask 11110100
          -805.9900054931641 -1201.990005493164 -107 callgsubr
        </CharString>
        <CharString name="Ugrave">
          -67 callgsubr
          142 43 302 callgsubr
          486.99000549316406 61 callsubr
          -27 callsubr
          -140 97 -36 143 60 callsubr
          -358.99000549316406 -1229.990005493164 -107 callgsubr
        </CharString>
        <CharString name="Uhungarumlaut">
          -67 callgsubr
          115.00999450683594 43 302 callgsubr
          459.97999572753906 1644.990005493164 rmoveto
          123 -86 246 callsubr
          -50 callgsubr
          176.99000549316406 159 52 116 rlinecurve
          -182.99000549316406 -2 callgsubr
          -284.02000427246094 -368.99000549316406 rlineto
          494.02000427246094 hmoveto
          117.99000549316406 -86 141 callgsubr
          -8 callgsubr
          269 callsubr
          157 69.02000427246094 116 rlinecurve
          -180 144 -285 -368.99000549316406 rlineto
          -826 -1048 -107 callgsubr
        </CharString>
        <CharString name="Umacron">
          -67 callgsubr
          176.989990234375 111 callgsubr
          302 callgsubr
          594.9799957275391 188 callgsubr
          116 callgsubr
          -577 hlineto
          -466.97999572753906 -1319 -107 callgsubr
        </CharString>
        <CharString name="Uogonek">
          101 7 callsubr
          450.989990234375 -37 callgsubr
          hstemhm
          127 361.97999572753906 1 281 hintmask 01111000
          1099 1530 rmoveto
          152 callsubr
          -896 rlineto
          -295.02000427246094 -44 -78 -92 callgsubr
          -163 hhcurveto
          -144 -53 45 150 -1 hvcurveto
          57 1 62.02000427246094 10.020004272460938 -47 callgsubr
          vhcurveto
          126 888.0099945068359 rlineto
          -353 hlineto
          290 callsubr
          -933 -8.990005493164062 -59 -5 -54 1 -52 rlinecurve
          -275.97999572753906 1 156 -56 callgsubr
          349 hhcurveto
          -50 callgsubr
          36 1 2.9900054931640625 34 hvcurveto
          hintmask 01110100
          -99 -51 -151 -121 -132.02000427246094 146 callsubr
          103 40 83 81 vhcurveto
          hintmask 10110100
          65 callgsubr
          64 153 137 121 71.97999572753906 hvcurveto
          -9.009994506835938 1 159 90.99000549316406 88 168 -8 callgsubr
          269 rlinecurve
          130 933 rlineto
          hintmask 01111000
          -351.99000549316406 hlineto
          endchar
        </CharString>
        <CharString name="Uring">
          89 -94 callsubr
          270.99000549316406 1215.990005493164 59 -59 258 callgsubr
          hstemhm
          294 callgsubr
          54.97999572753906 -27 callsubr
          305.02000427246094 290 callgsubr
          hintmask 11010110
          531.9900054931641 304 callgsubr
          132 -82 191.02000427246094 182.99000549316406 190 96.99000549316406 213 159 275 callgsubr
          308 callsubr
          hintmask 10110110
          501 42 rmoveto
          -115 -89.00999450683594 -28 -77 172 callgsubr
          -71 53 244 callgsubr
          108.00999450683594 92.02000427246094 36 76.99000549316406 70 66.00999450683594 -52 99 callsubr
          vhcurveto
          hintmask 11011110
          -904.9900054931641 -1156 -107 callgsubr
        </CharString>
        <CharString name="Utilde">
          -67 callgsubr
          62 -19 callsubr
          294 callgsubr
          hintmask 11011100
          465.97999572753906 102 callgsubr
          116.97999572753906 144.02000427246094 113.99000549316406 95.00999450683594 214 callgsubr
          85 callsubr
          -337.97999572753906 -1186 -107 callgsubr
        </CharString>
        <CharString name="V">
          -118 0 43 -43 198 callsubr
          1201.0500030517578 -62 callgsubr
          287 callsubr
          1296.990005493164 hintmask 10110000
          287 callsubr
          1530 rmoveto
          225 -1530 rlineto
          412 hlineto
          660.0099945068359 -24 callsubr
          -375.00999450683594 hlineto
          -355.99000549316406 -980 rlineto
          hintmask 01110000
          -77 -262 -17 262 -118 980 rlineto
          hintmask 10110000
          -354 hlineto
          endchar
        </CharString>
        <CharString name="W">
          452 126 callgsubr
          hstemhm
          96.99000549316406 1904 hintmask 10110000
          1636.990005493164 1530 rmoveto
          210 callsubr
          -980 rlineto
          hintmask 01110000
          -53 -68 callgsubr
          375.00999450683594 -23 callsubr
          hintmask 10110000
          217 callsubr
        </CharString>
        <CharString name="Wacute">
          108 callgsubr
          142 43 hstemhm
          132 callsubr
          1904 hintmask 10111000
          1419.979995727539 1826.979995727539 rmoveto
          -209.99000549316406 187 -279.02000427246094 -342 167 callgsubr
          173 callgsubr
          229 -296.97999572753906 rmoveto
          88 callsubr
          -980 rlineto
          hintmask 01111000
          -52.97999572753906 -68 callgsubr
          375 -23 callsubr
          hintmask 10111000
          217 callsubr
        </CharString>
        <CharString name="Wcircumflex">
          452 126 callgsubr
          164 callgsubr
          96.99000549316406 1904 hintmask 10101100
          1088 1765.990005493164 rmoveto
          -53 callsubr
          hintmask 10110100
          -371.02000427246094 -348 rlineto
          hintmask 10101100
          139 callsubr
          287.00999450683594 167 rlineto
          548.9900054931641 -236 rmoveto
          210 callsubr
          -980 rlineto
          hintmask 01101100
          -53 -68 callgsubr
          375.00999450683594 -23 callsubr
          hintmask 10101100
          217 callsubr
        </CharString>
        <CharString name="Wdieresis">
          108 callgsubr
          194 callgsubr
          hstemhm
          641.9799957275391 162 callsubr
          198 callgsubr
          hintmask 10111100
          791.9799957275391 187 callgsubr
          130 57 44 callgsubr
          2 -61 79 callsubr
          -113 -69 284 callsubr
          -82.99000549316406 104 callsubr
          -61 callgsubr
          80 hhcurveto
          472 hmoveto
          217 callgsubr
          -10 callgsubr
          hhcurveto
          -113.00999450683594 -66 144 callgsubr
          97 callsubr
          81 hhcurveto
          385 -101.99000549316406 rmoveto
          88 callsubr
          -980 rlineto
          hintmask 01111100
          -52.97999572753906 -68 callgsubr
          375 -23 callsubr
          hintmask 10111100
          217 callsubr
        </CharString>
        <CharString name="Wgrave">
          108 callgsubr
          142 43 hstemhm
          132 callsubr
          1904 hintmask 10111000
          1014.9900054931641 1549.990005493164 rmoveto
          143 122 -279 342 -209.99000549316406 -187 52.99000549316406 101 callgsubr
          210 callgsubr
          -140 96.99000549316406 -36 rlinecurve
          634 -3 callsubr
          rmoveto
          88 callsubr
          -980 rlineto
          hintmask 01111000
          -52.97999572753906 -68 callgsubr
          375 -23 callsubr
          hintmask 10111000
          217 callsubr
        </CharString>
        <CharString name="X">
          -107 24 callsubr
          -99 1501.979995727539 vstem
          463.99000549316406 808 rmoveto
          -562.9900054931641 -808 rlineto
          395.97999572753906 hlineto
          322 529.9799957275391 201 -530.9799957275391 385.99000549316406 1 -347 734.9900054931641 543.9900054931641 795.0099945068359 rlineto
          -385.99000549316406 hlineto
          -317.00999450683594 -493.02000427246094 -36 callgsubr
          493.02000427246094 rlineto
          -380 hlineto
          321 -722 rlineto
          endchar
        </CharString>
        <CharString name="Y">
          66 callgsubr
          294 callsubr
          401.97999572753906 589.9900054931641 rmoveto
          -89 callsubr
          123 callsubr
        </CharString>
        <CharString name="Yacute">
          -187 256 callsubr
          82.97999572753906 1272.990005493164 vstem
          593 189 callgsubr
          195 callgsubr
          97 36 210 callgsubr
          140 53 29 callgsubr
          -210 41 callgsubr
          rlineto
          -191.02000427246094 -1082 rmoveto
          -89 callsubr
          123 callsubr
        </CharString>
        <CharString name="Ycircumflex">
          66 callgsubr
          164 callgsubr
          52 callsubr
          1272.990005493164 hintmask 00000000
          hintmask 11101000
          326.97999572753906 164 callsubr
          hintmask 11011000
          148 -66.99000549316406 287 106 callgsubr
          75 -1076 rmoveto
          hintmask 11011000
          -89 callsubr
          hintmask 11101000
          123 callsubr
        </CharString>
        <CharString name="Ydieresis">
          66 callgsubr
          194 callgsubr
          hstem
          303.97999572753906 162 callsubr
          339 vstem
          303.97999572753906 305 callsubr
          104 callsubr
          -61 callgsubr
          80 hhcurveto
          130 57 91 111 2 64 callgsubr
          81 hhcurveto
          129 38 callsubr
          -66 144 callgsubr
          -376.00999450683594 -1209 rmoveto
          -89 callsubr
          123 callsubr
        </CharString>
        <CharString name="Ygrave">
          -187 256 callsubr
          82.97999572753906 1272.990005493164 vstem
          331 61 callsubr
          -27 callsubr
          -140 97 -36 143 60 callsubr
          244 callgsubr
          -1236.990005493164 rmoveto
          -89 callsubr
          123 callsubr
        </CharString>
        <CharString name="Z">
          14 callsubr
          hstemhm
          172 callgsubr
          1324.9700012207031 hintmask 11010000
          172 callgsubr
          88.99000549316406 8 callgsubr
        </CharString>
        <CharString name="Zacute">
          14 callsubr
          142.00001525878906 43 hstemhm
          172 callgsubr
          1324.9700012207031 hintmask 11011000
          652.9799957275391 189 callgsubr
          167 callgsubr
          -122 96.99000549316406 -78 callgsubr
          -720.9700012207031 -1583 -17 callgsubr
          rlineto
          hintmask 10111000
          741.9900054931641 1088 rlineto
          hintmask 11011000
          28 callgsubr
          -773.9799957275391 -1099 rlineto
          endchar
        </CharString>
        <CharString name="Zcaron">
          14 callsubr
          hstemhm
          172 callgsubr
          1324.9700012207031 hintmask 11010000
          422.99000549316406 144 callsubr
          168 callgsubr
          -337 rlineto
          180 hlineto
          371.02000427246094 161 callgsubr
          -287 -36 callgsubr
          -182.99000549316406 2 callsubr
          rlineto
          -490.97999572753906 -1847 8 callgsubr
        </CharString>
        <CharString name="Zdotaccent">
          14 callsubr
          81.99000549316406 363 hstemhm
          172 callgsubr
          1324.9700012207031 -675.989990234375 317 callsubr
          hintmask 00000000
          hintmask 10110100
          581 112 callsubr
          -2 callgsubr
          72 47 callsubr
          -38 callsubr
          74 -116.99000549316406 hhcurveto
          -124 -84.00999450683594 204 callgsubr
          -648.9900054931641 -1690.009994506836 -17 callgsubr
          741.9900054931641 1088 rlineto
          hintmask 11001000
          28 callgsubr
          rlineto
          hintmask 10110100
          -773.9799957275391 -1099 rlineto
          endchar
        </CharString>
        <CharString name="a">
          -71 callgsubr
          -72 callgsubr
          hintmask 10110000
          1020.9900054931641 1111 rmoveto
          21 -39 callsubr
          -103.02000427246094 24 -83.99000549316406 hhcurveto
          -96 callsubr
          hintmask 01110000
          230 callgsubr
          hintmask 10110000
          293 callsubr
          -490 -887.0099945068359 -99 callgsubr
        </CharString>
        <CharString name="aacute">
          -71 callgsubr
          -72 callgsubr
          hintmask 10110000
          1209 45 callgsubr
          88 callsubr
          -449 124.00999450683594 -37 callsubr
          -436 -418 rmoveto
          -96 callsubr
          hintmask 01110000
          -51 callsubr
          293 callsubr
          hintmask 10110000
          21 -39 callsubr
          238 callsubr
          -932 -99 callgsubr
        </CharString>
        <CharString name="abreve">
          -71 callgsubr
          143.989990234375 217 -72 callgsubr
          53.97999572753906 196 307.010009765625 309 callsubr
          hintmask 10111110
          820 299 callgsubr
          255 132 callsubr
          182 callsubr
          hvcurveto
          -184 -19 callgsubr
          -77 callsubr
          15 2 14 hvcurveto
          -188 hlineto
          -5 -18 -7 221 callgsubr
          160 callsubr
          240 vhcurveto
          200.99000549316406 6 callgsubr
          rmoveto
          21 -39 callsubr
          -69 callgsubr
          hintmask 10111010
          -96 callsubr
          hintmask 01111010
          230 callgsubr
          hintmask 10111110
          293 callsubr
          hintmask 10111010
          -490 -887.0099945068359 -99 callgsubr
        </CharString>
        <CharString name="acircumflex">
          -71 callgsubr
          -72 callgsubr
          hintmask 10110000
          851.9900054931641 1402 rmoveto
          163 callgsubr
          247 callgsubr
          116 callsubr
          -371 -373.99000549316406 138 -13 callgsubr
          rlineto
          169 -291 rmoveto
          21 -39 callsubr
          -103.02000427246094 24 -83.99000549316406 hhcurveto
          -96 callsubr
          hintmask 01110000
          230 callgsubr
          hintmask 10110000
          293 callsubr
          -490 -887.0099945068359 -99 callgsubr
        </CharString>
        <CharString name="acute">
          -786 271 callgsubr
          548 hstem
          318 callgsubr
          543 vstem
          318 callgsubr
          1324.990005493164 rmoveto
          124.00999450683594 -37 callsubr
          -209 200 88 callsubr
          -449 rlineto
          endchar
        </CharString>
        <CharString name="acute.cap">
          -819 141 callsubr
          43 hstem
          180 callgsubr
          489 vstem
          180 callgsubr
          189 callgsubr
          195 callgsubr
          167 callsubr
          -78 callgsubr
          endchar
        </CharString>
        <CharString name="adieresis">
          -71 callgsubr
          182 248 callsubr
          -72 callgsubr
          -26.020004272460938 162 callsubr
          198 callgsubr
          hintmask 00000000
          hintmask 10110110
          565.9900054931641 1338 rmoveto
          130 57 186 callgsubr
          0 callgsubr
          -109 -2 hvcurveto
          279 callsubr
          505 362.99000549316406 rmoveto
          5 callsubr
          -66 308 callgsubr
          233 callgsubr
          129 60 50 callgsubr
          80 2 -64 139 callgsubr
          -297.97999572753906 -545 rmoveto
          hintmask 10111010
          -96 callsubr
          hintmask 01111010
          -51 callsubr
          293 callsubr
          hintmask 10110110
          21 -39 callsubr
          -69 callgsubr
          hintmask 10111010
          244 callsubr
          -932 -99 callgsubr
        </CharString>
        <CharString name="ae">
          30 callgsubr
          1251.979995727539 226 -90 callsubr
        </CharString>
        <CharString name="aeacute">
          30 callgsubr
          1421.990005493164 10 callsubr
          -170 -1348 -90 callsubr
        </CharString>
        <CharString name="agrave">
          -71 callgsubr
          -72 callgsubr
          hintmask 10110000
          773.9799957275391 271 callgsubr
          rmoveto
          124 99 210 callsubr
          449 -209.02000427246094 -200 98 callgsubr
          rlinecurve
          247 -115 rmoveto
          21 -39 callsubr
          -103.02000427246094 24 -83.99000549316406 hhcurveto
          -96 callsubr
          hintmask 01110000
          230 callgsubr
          hintmask 10110000
          293 callsubr
          -490 -887.0099945068359 -99 callgsubr
        </CharString>
        <CharString name="amacron">
          -71 callgsubr
          239 67 callgsubr
          -72 callgsubr
          hintmask 10111000
          1120.990005493164 206 callgsubr
          -597.0099945068359 hlineto
          -17.990005493164062 -218.99000549316406 rlineto
          597 hlineto
          18 67 callgsubr
          rlineto
          -100 -502.99000549316406 rmoveto
          21 -39 callsubr
          -103.02000427246094 24 -83.99000549316406 hhcurveto
          -96 callsubr
          hintmask 01111000
          230 callgsubr
          hintmask 10111000
          293 callsubr
          -490 -887.0099945068359 -99 callgsubr
        </CharString>
        <CharString name="ampersand">
          214 -94 callsubr
          203.97999572753906 212 callsubr
          233.97999572753906 316 callsubr
          236 496.010009765625 219.99000549316406 hstemhm
          4.9900054931640625 346.99000549316406 -89.00001525878906 329.00999450683594 244.00001525878906 324.99000549316406 -165.00001525878906 95 4 326 hintmask 0111101000000000
          1596.990005493164 828.9900054931641 rmoveto
          hintmask 0111100100000000
          -447 1 rlineto
          312 callgsubr
          -40 -22 -23 -19 hvcurveto
          -10 -224 23 322 callgsubr
          34 11 43 5 rlinecurve
          hintmask 0111100010000000
          2 -21.009994506835938 -77 callsubr
          -24 -26 callgsubr
          vvcurveto
          -60 -17 169 callsubr
          74 callsubr
          -42 vhcurveto
          -117 109 -99 134 289 callgsubr
          124 rrcurveto
          hintmask 0111011000000000
          203 118.00999450683594 205 144 240 vvcurveto
          209 callgsubr
          -79 172 -325.02000427246094 -320.97999572753906 -173.02000427246094 -197 -241 -95 34 -123.99000549316406 120 callgsubr
          -104 vhcurveto
          hintmask 0111100010000000
          -179.02000427246094 -100 -157.97999572753906 -121 -203.02000427246094 vvcurveto
          -261 232 -115.97000122070312 379 122.97999572753906 134 callsubr
          16.970001220703125 277 callgsubr
          107.00999450683594 vhcurveto
          -36 -34 callsubr
          98 -13.990005493164062 66 hhcurveto
          71 141 89 callgsubr
          15.990005493164062 41.99000549316406 hvcurveto
          hintmask 1011100010000000
          40 180 84 callgsubr
          -1 -29 0 -27 2 rlinecurve
          -59 4 226 callgsubr
          9.009994506835938 -40 13 rrcurveto
          92.02000427246094 148 callgsubr
          53.99000549316406 123 153 vvcurveto
          89 callgsubr
          156 vlineto
          hintmask 0111101000000000
          20 235 rlineto
          hintmask 0111011000000000
          -1005 317.00999450683594 rmoveto
          104 51 76 150 callsubr
          85.02000427246094 34 -46 -82 -107 -61 callgsubr
          -77 -113.99000549316406 -69 vhcurveto
          -24 58 -22 74 69.02000427246094 vvcurveto
          hintmask 0111101000000000
          -240 -755.0200042724609 rmoveto
          65 45 55 69 52 vhcurveto
          77 -125.00999450683594 63 -93 123 -123 rrcurveto
          -76 callgsubr
          -29 -30 -1 -29.979995727539062 hhcurveto
          -166.02000427246094 -122 39 134 hvcurveto
          endchar
        </CharString>
        <CharString name="aogonek">
          -83 7 callsubr
          450.989990234375 239.97999572753906 -223.989990234375 43 902.9900054931641 210 -72 callgsubr
          74.99000549316406 280.97999572753906 hintmask 00000000
          hintmask 10101110
          864.9900054931641 -276.99000549316406 rmoveto
          -39 224 callsubr
          28 callsubr
          80 callsubr
          293 callsubr
          21 -39 callsubr
          -103.02000427246094 24 -83.99000549316406 hhcurveto
          -96 callsubr
          hintmask 01011110
          -12 -247.99000549316406 rlineto
          69 102 callsubr
          81 vhcurveto
          hintmask 10011110
          -40.97999572753906 174.99000549316406 rlineto
          hintmask 10101110
          280 callsubr
          88 callsubr
          500.97999572753906 -99 callgsubr
        </CharString>
        <CharString name="approxequal">
          -288 277 callsubr
          262 -80.010009765625 252 62.010009765625 261.97999572753906 -79.99000549316406 252 hstemhm
          -6 1129.979995727539 hintmask 01011000
          64 947 rmoveto
          179 callsubr
          -141 rlineto
          49.99000549316406 39 60 59 73.02000427246094 hhcurveto
          hintmask 01101000
          229 callgsubr
          116.99000549316406 319 callsubr
          28 hvcurveto
          -134 139 rlineto
          -70 169 callsubr
          -59 -37 170 callsubr
          hhcurveto
          hintmask 01011000
          -129 -80 172.02000427246094 -193 hhcurveto
          -146 -165 87 callsubr
          101 callgsubr
          74 callsubr
          hvcurveto
          -70 -496 rmoveto
          179 callsubr
          -141 rlineto
          50 39 60 58.97999572753906 234 callsubr
          hintmask 10011000
          229 callgsubr
          117 272 callgsubr
          28 hvcurveto
          -134 139 rlineto
          -70 169 callsubr
          -59 -36.99000549316406 170 callsubr
          hhcurveto
          hintmask 01011000
          -129 -80 197 callgsubr
          -193 hhcurveto
          -146 -165 -16 callsubr
          -101 74 callsubr
          hvcurveto
          endchar
        </CharString>
        <CharString name="aring">
          -71 callgsubr
          96.989990234375 202 callgsubr
          -72 callgsubr
          57.99000549316406 -27 callsubr
          304.99998474121094 195 hintmask 10111011
          812.9900054931641 1252.990005493164 rmoveto
          107 callgsubr
          311 callgsubr
          hvcurveto
          52 411.02000427246094 rmoveto
          70 65.99000549316406 -52.02000427246094 170 callsubr
          -115 -88.99000549316406 127 callgsubr
          hvcurveto
          156 -553 rmoveto
          21 -39 callsubr
          -69 callgsubr
          hintmask 10111111
          -96 callsubr
          hintmask 01111011
          230 callgsubr
          hintmask 10111011
          293 callsubr
          hintmask 10111111
          -490 -887.0099945068359 -99 callgsubr
        </CharString>
        <CharString name="asciicircum">
          13 1490.0199890136719 207 callsubr
          312 callsubr
          1065 vstem
          657 1530.979995727539 rmoveto
          -531 -1020.9900054931641 rlineto
          275 hlineto
          357.99000549316406 650 161 -650 rlineto
          271.00999450683594 hlineto
          -267 1020.9900054931641 rlineto
          -267 hlineto
          endchar
        </CharString>
        <CharString name="asciitilde">
          -214 671.9799957275391 262 -79.989990234375 251.99000549316406 237 callsubr
          1060 hintmask 01100000
          142 callsubr
          885.9900054931641 rmoveto
          148 -141 rlineto
          50 39 60 59 -47 callgsubr
          hhcurveto
          hintmask 10100000
          153 52 -182 203 hhcurveto
          146 158 117 272 callgsubr
          28 hvcurveto
          -134 139.02000427246094 rlineto
          -70 169 callsubr
          -59 -37 170 callsubr
          hhcurveto
          hintmask 01100000
          -129 -80.02000427246094 197 callgsubr
          -192.97999572753906 hhcurveto
          -146 -165 -16 callsubr
          -101 -31 hvcurveto
          endchar
        </CharString>
        <CharString name="asterisk">
          15 1107.0199890136719 -104 callsubr
          -38.94999694824219 -104 callsubr
          348.0399932861328 -104 callsubr
          -38.96000671386719 -62 callgsubr
          269 callsubr
          1156.009994506836 hintmask 01011000
          269 callsubr
          968.9900054931641 rmoveto
          107 -210 397 289 224 callsubr
          -138 -76.99000549316406 -330 244 -1 -12 331 -6 138 103 -92 callgsubr
          239 -203 rlineto
          hintmask 10011000
          150 208 -298.99000549316406 312 callsubr
          -118 53 129 55 327 128 315 callgsubr
          210 -292 -205 -121 -81 277 callgsubr
          135 76.97999572753906 331 rlineto
          -238 hlineto
          8 -331 -1 -135 rlineto
          hintmask 01101000
          -98 81 -258 203 276 callgsubr
          -208 298.97999572753906 -128 118 -53 -129 -55 rlineto
          hintmask 01011000
          -327 249 callsubr
          rlineto
          endchar
        </CharString>
        <CharString name="at">
          677 -439.99000549316406 67 callgsubr
          227.97999572753906 289.00999450683594 -284.99998474121094 168 callgsubr
          660.0099945068359 228.99000549316406 236.00999450683594 196.99000549316406 hstemhm
          56 callgsubr
          -57 callsubr
          197.99998474121094 295.99000549316406 368.02000427246094 214.99000549316406 288.99998474121094 254.99000549316406 hintmask 1011111110000000
          271 callgsubr
          1544.990005493164 rmoveto
          -625 -499 -447 -724 -516.9700012207031 351.99000549316406 -297 485 171 163 46 70 92 hvcurveto
          -59 148 callsubr
          rlineto
          -30 -61.99000549316406 -97.02000427246094 -42 callsubr
          -186 hhcurveto
          -320.97999572753906 -294.02000427246094 165 473.99000549316406 460.99000549316406 316.00999450683594 469.00999450683594 513 289 100 callsubr
          133 callsubr
          -385.99000549316406 -305.00999450683594 -127 -332 -148.99000549316406 -9.020004272460938 -3.9900054931640625 9.009994506835938 17 -8 callgsubr
          6 10 11 103.00999450683594 hvcurveto
          149 callsubr
          201 -24 callgsubr
          334 273 callsubr
          153 -195 -30 rcurveline
          39 -56 -109 131 callsubr
          -55 hhcurveto
          -369.99000549316406 -194 -347 -321 -6 hvcurveto
          hintmask 1101111110000000
          -297 -6 179 -140 135 hhcurveto
          148 -48 callsubr
          151 213.02000427246094 -67 callsubr
          hvcurveto
          hintmask 1011111110000000
          -6 -59 -6 -100 -47 vvcurveto
          -89 40 -64.99000549316406 80 289.02000427246094 349.99000549316406 326.97999572753906 571 388.02000427246094 -286.99000549316406 248 -454 vhcurveto
          hintmask 1101111110000000
          -300.00999450683594 -1249 rmoveto
          -70.99000549316406 -15.009994506835938 80 107.99000549316406 159 76 240 157 38 58 -11 -32 29 hvcurveto
          -165 -21.009994506835938 -157 -378.97999572753906 -94 hhcurveto
          endchar
        </CharString>
        <CharString name="atilde">
          -71 callgsubr
          143.989990234375 -58 callgsubr
          69.97999572753906 372.02000427246094 hintmask 10110010
          645.9799957275391 1454 rmoveto
          -3 133.02000427246094 -15.009994506835938 -151 210 callgsubr
          hhcurveto
          116.97999572753906 134 114 95 273 callsubr
          hvcurveto
          87 callsubr
          145 rlineto
          -52 -42 -35 -58 88 callgsubr
          -110 -7 154 -172.02000427246094 hhcurveto
          hintmask 10100110
          207 callgsubr
          -45 hvcurveto
          hintmask 10101010
          106 -136 rlineto
          hintmask 10110010
          42 82 callgsubr
          82 callgsubr
          46 68 43 callgsubr
          rrcurveto
          127.02000427246094 -298 rmoveto
          -96 callsubr
          hintmask 01110010
          -51 callsubr
          293 callsubr
          hintmask 10110010
          21 -39 callsubr
          238 callsubr
          -932 -99 callgsubr
        </CharString>
        <CharString name="b">
          156 callsubr
          hstemhm
          845.9799957275391 374 hintmask 10110000
          103 callsubr
          hintmask 01110000
          -225 -1634 rlineto
          hintmask 10110000
          186 34 43 callgsubr
          -2 rlineto
          -22 59 132 callsubr
          -25.979995727539062 88 125 callsubr
          230 -61 callgsubr
          202 -251.99000549316406 hvcurveto
          -45 callgsubr
        </CharString>
        <CharString name="backslash">
          -497 -362 1958.990005493164 hstem
          5.9799957275390625 845 vstem
          850.9799957275391 -362 rmoveto
          -269 hlineto
          -576 1958.990005493164 rlineto
          268 hlineto
          577 -1958.990005493164 rlineto
          endchar
        </CharString>
        <CharString name="bar">
          158 callsubr
          -1965.990005493164 251 callsubr
          1965.990005493164 223 callgsubr
          vlineto
          endchar
        </CharString>
        <CharString name="braceleft">
          -327 -271.99000549316406 110 callgsubr
          1608.979995727539 233 hstem
          50.99000549316406 991.9799957275391 vstem
          267.97999572753906 546 rmoveto
          0 -86 -608.9900054931641 -1 -29 vhcurveto
          -110 43 callgsubr
          50 -70 146 hhcurveto
          138 135 41 36 92 hvcurveto
          0 19 150 2.9900054931640625 131 callsubr
          vhcurveto
          -274.97999572753906 hlineto
          92 591.9900054931641 8.990005493164062 60.99000549316406 -3 callsubr
          17.020004272460938 -30 -24 callgsubr
          rlinecurve
          -29 30 133 callsubr
          39 -58.99000549316406 31.009994506835938 rrcurveto
          0 175.99000549316406 58 29 17 vhcurveto
          53 33 149 callgsubr
          149 callgsubr
          89 callgsubr
          54 94 618.9900054931641 rcurveline
          276.00999450683594 hlineto
          -24 callgsubr
          176 rlineto
          0 -220 57 -110 -178 110 callsubr
          -64 -198 133 callgsubr
          vhcurveto
          -88 -537.9900054931641 -4 -23 -26 -31 -35 -19 rlinecurve
          -52 -27 -75 -12 -65 -16 84 callgsubr
          -203.02000427246094 rcurveline
          59 -13.990005493164062 63 -15.009994506835938 151 callsubr
          -29 rrcurveto
          32 -21 101 callsubr
          -34 -22 vvcurveto
          endchar
        </CharString>
        <CharString name="braceright">
          -327 -265.99000549316406 233 1608.9800109863281 110 callgsubr
          hstem
          29.979995727539062 992.0099945068359 vstem
          804.9900054931641 1000 rmoveto
          0 86 609 1 29 vhcurveto
          110 1 169 callsubr
          70 -146 hhcurveto
          -138.02000427246094 -134.99000549316406 -41 -36 -92.02000427246094 hvcurveto
          0 -18.990005493164062 -150 -3 74 callgsubr
          vhcurveto
          275 hlineto
          -92 -592.0200042724609 -9.009994506835938 -39 callsubr
          20.009994506835938 -17 30 -31 rlinecurve
          29 -30 56 callgsubr
          -38.99000549316406 59 -31.009994506835938 rrcurveto
          0 -176 -58 -29 -17 vhcurveto
          -53 -33 -27 171 callsubr
          -8 -54 -93.99000549316406 -618.9799957275391 rcurveline
          227 callsubr
          hlineto
          -31 -176 rlineto
          0 220.02000427246094 -57 110 177.99000549316406 74 64 198 277 callgsubr
          vhcurveto
          88 537.9900054931641 4 23 25.990005493164062 -24 callgsubr
          35 19 rlinecurve
          52 149 callgsubr
          75.02000427246094 225 callgsubr
          64.99000549316406 67 callsubr
          32 203 rcurveline
          -59 13.990005493164062 -63 179 callgsubr
          -43 29 rrcurveto
          84 callgsubr
          180 callgsubr
          -1 callgsubr
          34 22.020004272460938 vvcurveto
          endchar
        </CharString>
        <CharString name="bracketleft">
          -497 -258.99000549316406 228.99000549316406 1609.990005493164 222 hstem
          -48 callsubr
          801.9900054931641 vstem
          345.99000549316406 1512.979995727539 rmoveto
          -208 -1479.990005493164 rlineto
          -6 -39.99000549316406 -2 -36 -34 vvcurveto
          -110 71 -71.99000549316406 312 callsubr
          159 93 29.990005493164062 -38 callgsubr
          90.99000549316406 vhcurveto
          22.020004272460938 173 rlineto
          -255.02000427246094 hlineto
          214.02000427246094 1609.990005493164 rlineto
          255 hlineto
          25.990005493164062 175 rlineto
          0 -192 47 -138 -158 -71 315 callgsubr
          -192 -27 vhcurveto
          endchar
        </CharString>
        <CharString name="bracketright">
          -497 -246 222 1609.990005493164 229 hstem
          -94 callsubr
          801.9700012207031 vstem
          570 151 callsubr
          rmoveto
          208 1480.009994506836 rlineto
          6 40 -77 callsubr
          36 34 vvcurveto
          110 -70.99000549316406 72 -126.02000427246094 -158.99000549316406 -93 -30 1 callgsubr
          272 callsubr
          vhcurveto
          -22 -173 rlineto
          255 hlineto
          -214 -1609.990005493164 rlineto
          -255 hlineto
          -25.979995727539062 -175 rlineto
          0 191.97000122070312 -47 245 callgsubr
          157.99000549316406 71 167 callsubr
          191.97999572753906 149 callgsubr
          vhcurveto
          endchar
        </CharString>
        <CharString name="breve">
          -627 1299.979995727539 217 hstem
          -50 callgsubr
          147 callsubr
          -50 callgsubr
          1595.990005493164 96 callsubr
          255.02000427246094 109 182 callsubr
          vhcurveto
          -183.99000549316406 45 callsubr
          endchar
        </CharString>
        <CharString name="breve.cap">
          -629 1632.990005493164 217 hstem
          -50 callgsubr
          147 callsubr
          -50 callgsubr
          -14 callgsubr
          endchar
        </CharString>
        <CharString name="brokenbar">
          158 callsubr
          -864.0099945068359 251 callsubr
          864.0099945068359 223 callgsubr
          vlineto
          -1102 vmoveto
          -863.9900054931641 251 callsubr
          863.9900054931641 223 callgsubr
          vlineto
          endchar
        </CharString>
        <CharString name="bullet">
          -493 506.97999572753906 432 hstem
          232.97999572753906 427 vstem
          232.97999572753906 682.9900054931641 rmoveto
          -97 76 73 callsubr
          100 153 98 140 120.02000427246094 99 -75 -47 callgsubr
          -17 callsubr
          250 callgsubr
          -21 callgsubr
          -136 -119.99000549316406 vhcurveto
          endchar
        </CharString>
        <CharString name="c">
          -45 callsubr
          694.9900054931641 1155.990005493164 -98 callsubr
          hintmask 10110000
          86.02000427246094 342 rlineto
          hintmask 11010000
          -38 callgsubr
          -60 -127 17 -71 hhcurveto
          endchar
        </CharString>
        <CharString name="cacute">
          -45 callsubr
          600.9900054931641 1324.990005493164 rmoveto
          124 -37 callsubr
          -209 200 -334 -449 rlineto
          94 -169 -98 callsubr
          hintmask 10110000
          86.02000427246094 342 rlineto
          hintmask 11010000
          -38 callgsubr
          -60 -127 17 -71 hhcurveto
          endchar
        </CharString>
        <CharString name="caron">
          -549 1257.979995727539 441.99000549316406 hstem
          64.97999572753906 763 vstem
          64.97999572753906 187 callgsubr
          155 callsubr
          372 374 3 callgsubr
          227 callsubr
          6 callgsubr
          -212.99000549316406 134 callgsubr
          -126.02000427246094 -68 rlineto
          endchar
        </CharString>
        <CharString name="caron.cap">
          -551 1598.990005493164 414.97999572753906 hstem
          54.99000549316406 763 vstem
          54.99000549316406 59 callgsubr
          -148 66.99000549316406 -286.97999572753906 40 callsubr
          endchar
        </CharString>
        <CharString name="caronvertical">
          -1033 1036.979995727539 644.9900054931641 hstem
          323 callsubr
          263 vstem
          193.99000549316406 1089.990005493164 rmoveto
          6 -25 151 -28 rlineto
          96.00999450683594 196 callsubr
          177 callsubr
          27 vhcurveto
          -229 -47.99000549316406 -19.009994506835938 -42 rlineto
          20.009994506835938 -30 4 219 callgsubr
          endchar
        </CharString>
        <CharString name="ccaron">
          -45 callsubr
          416.99000549316406 187 callgsubr
          168 callgsubr
          -374 rlineto
          179.02000427246094 23 callgsubr
          278 -476 -98 callsubr
          hintmask 10110000
          86.02000427246094 342 rlineto
          hintmask 11010000
          -38 callgsubr
          -60 -127 17 -71 hhcurveto
          endchar
        </CharString>
        <CharString name="ccedilla">
          -395 193 callsubr
          140 callgsubr
          43 -30 43 834.9900054931641 48 callsubr
          117 callsubr
          -7.0000152587890625 -57 callsubr
          hintmask 10110100
          583.9900054931641 268 callsubr
          rmoveto
          5 callsubr
          -33 83 174 261 132 callsubr
          134 callsubr
          121.02000427246094 -42 callgsubr
          102.00999450683594 -88 -19 190 callgsubr
          hintmask 10101100
          86.02000427246094 342 rlineto
          hintmask 11010100
          -38 callgsubr
          -60 -127 17 -71 hhcurveto
          -359 -262 -294.00999450683594 -419.99000549316406 -203.02000427246094 92 209 callsubr
          264 -27.990005493164062 hvcurveto
          hintmask 11010010
          2.9900054931640625 -30 0 -39 -2 -42 rrcurveto
          -104 -6 -73 -21 -102.99000549316406 hhcurveto
          -32 -30 42 callsubr
          23.020004272460938 163.99000549316406 -19 293 callgsubr
          101 132 hvcurveto
          hintmask 10110010
          -48 callgsubr
          -23 112 -23 59 vhcurveto
          145 276 callsubr
          91.00999450683594 81 callsubr
          151 callsubr
          66.00999450683594 -41 callsubr
          148 callsubr
          rcurveline
          hintmask 10110100
          -47.99000549316406 -43 -107.99000549316406 -38 callsubr
          -61 callgsubr
          hhcurveto
          endchar
        </CharString>
        <CharString name="ccircumflex">
          -45 callsubr
          358.99000549316406 -31 callgsubr
          336 -140 -98 callsubr
          hintmask 10110000
          86.02000427246094 342 rlineto
          hintmask 11010000
          -38 callgsubr
          -60 -127 17 -71 hhcurveto
          endchar
        </CharString>
        <CharString name="cdotaccent">
          -395 -94 callsubr
          256.97999572753906 637.0000152587891 48 callsubr
          157 368 117 callsubr
          138.01998901367188 100 callgsubr
          hintmask 11011100
          576 20 callgsubr
          118.99000549316406 -324 -98 callsubr
          hintmask 10111100
          86.02000427246094 342 rlineto
          hintmask 11011100
          -38 callgsubr
          -60 -127 17 -71 hhcurveto
          endchar
        </CharString>
        <CharString name="cedilla">
          -867 193 callsubr
          hstem
          233.97999572753906 -57 callsubr
          vstem
          326.97999572753906 34 rmoveto
          -100 211 callgsubr
          7 -26 callgsubr
          4.0200042724609375 -59.97999572753906 211 callgsubr
          -68.02000427246094 rlinecurve
          -104 -6 170 callsubr
          -21 -103 hhcurveto
          -32 -29.979995727539062 42 callsubr
          23 163.97999572753906 -19 293 callgsubr
          101 132 82 -34 150 -28 35.97999572753906 hvcurveto
          -89 4.0200042724609375 rlineto
          endchar
        </CharString>
        <CharString name="cent">
          -274 -11 43 1077.0299987792969 207 callsubr
          90.99000549316406 -11 callsubr
          vstem
          600.9900054931641 268 callsubr
          rmoveto
          5 callsubr
          -33.02000427246094 83 174 261 109.02000427246094 134 callsubr
          121 -42 callgsubr
          102.00999450683594 -88 -19 19 hvcurveto
          86 342 -39.02000427246094 17 -65.99000549316406 13 -62.02000427246094 7 rlinecurve
          64 278 rlineto
          -239.97999572753906 hlineto
          -66.00999450683594 -290 rlineto
          -279 -71 -191 -267 315 callsubr
          vvcurveto
          166 callgsubr
          68 -190 187 -68 vhcurveto
          -52 -285 rlineto
          240 hlineto
          47.99000549316406 264.00999450683594 183 21.990005493164062 111 99 49 75 rlinecurve
          -89 148 callsubr
          rlineto
          -47.99000549316406 -43 -108 -38 callsubr
          -84 hhcurveto
          endchar
        </CharString>
        <CharString name="circumflex">
          -548 1227.979995727539 441.99000549316406 hstem
          276 callsubr
          763 vstem
          276 callsubr
          20 callsubr
          endchar
        </CharString>
        <CharString name="circumflex.cap">
          -549 1665.990005493164 43 -32 43 hstemhm
          318 callgsubr
          763 hintmask 00000000
          hintmask 10100000
          318 callgsubr
          164 callsubr
          hintmask 01100000
          139 callsubr
          286.99000549316406 167 183 -167 145 -42 callgsubr
          -211.99000549316406 337 rlineto
          -180.02000427246094 hlineto
          hintmask 10100000
          213 callgsubr
          endchar
        </CharString>
        <CharString name="colon">
          -825 -29 43 -43 271 callsubr
          442 367 185 callgsubr
          hstemhm
          8.990005493164062 369 -276 369 hintmask 00000000
          hintmask 10010100
          309.97999572753906 1146.979995727539 rmoveto
          -129 109 callsubr
          -103 -112 hvcurveto
          hintmask 10100100
          306 callsubr
          97 129 84 87 131.02000427246094 vhcurveto
          hintmask 10010100
          80 -43 69 -118 vhcurveto
          hintmask 01011000
          -93 -809 rmoveto
          -129 -78.99000549316406 -44 callgsubr
          endchar
        </CharString>
        <CharString name="colonmonetary">
          63 1494.0299987792969 207 callsubr
          202.99000549316406 1149.990005493164 vstem
          701.9900054931641 -14 rmoveto
          -50 -328.99000549316406 rlineto
          -109 hlineto
          52 346.99000549316406 rlineto
          -292.97999572753906 -42 callgsubr
          -99 288.00999450683594 272 vvcurveto
          472 226 callsubr
          338 365.02000427246094 77 vhcurveto
          151 callsubr
          284 rlineto
          109 hlineto
          -41 -269 rlineto
          17 1 16 1 17 23 180 callgsubr
          -1 20.009994506835938 hflex1
          40.989990234375 268.99000549316406 rlineto
          109 hlineto
          -42 -278 83 -11 55 -17.020004272460938 56 74 callgsubr
          rlinecurve
          -72.00999450683594 -245 -3 callsubr
          19 -58 180 callgsubr
          -80.02000427246094 322 callgsubr
          rlinecurve
          -163.97999572753906 -1089 92 180 callgsubr
          -47 callgsubr
          40 270 callgsubr
          43 rlinecurve
          65.99000549316406 -183.99000549316406 -39 callsubr
          -60 -118 -53 -153 -22.979995727539062 rlinecurve
          -51 -340 rlineto
          -110 hlineto
          50 328.99000549316406 rlineto
          -18.979995727539062 43 callgsubr
          -1 callgsubr
          -1 -19 -18.990005493164062 -17 1 -19 hflex1
          32.96998596191406 219.989990234375 rmoveto
          -6 24 -38 callgsubr
          -76 callgsubr
          29 hhcurveto
          11 11 0 0.9900054931640625 11 hvcurveto
          169 1116.020004272461 rlineto
          -13 -13 248 callgsubr
          322 callsubr
          hhcurveto
          -25 1 callgsubr
          -76 callgsubr
          -5 168 callsubr
          hvcurveto
          -166 -1101 rlineto
          50 1055 rmoveto
          -158 -98 -95.00999450683594 -227 -5 -284.02000427246094 -4 -179 -24 callgsubr
          -135 1 callsubr
          -76 151 999.0099945068359 rcurveline
          endchar
        </CharString>
        <CharString name="comma">
          -825 -519 813.9900054931641 hstem
          53 callgsubr
          277.99000549316406 vstem
          38.99000549316406 52.97999572753906 -8 callsubr
        </CharString>
        <CharString name="copyright">
          740 -34 callsubr
          129 258 249 callgsubr
          566.0099945068359 204.97999572753906 257.00999450683594 126.00999450683594 hstem
          174.97999572753906 142 282.010009765625 250.97999572753906 923.0200042724609 -2 callgsubr
          260 callgsubr
          -384 -389.02000427246094 -485.99000549316406 -487 384 261 callgsubr
          385 392.00999450683594 487 485.99000549316406 -385 389.02000427246094 329 callsubr
          -419 -309 336 414 413 309 336 419 419 309 -336 -413 -414 -309 -336 -419 hvcurveto
          48.99000549316406 1241.990005493164 rmoveto
          -325 -56 callgsubr
          -216.99000549316406 -284 2 hvcurveto
          -259.00999450683594 0.9900054931640625 176 209 callsubr
          274 hhcurveto
          133 124 50 53 60.99000549316406 hvcurveto
          151 callgsubr
          173 rlineto
          -28 -39 73 callsubr
          -35 -106.99000549316406 hhcurveto
          -145 -106 87 221 51 callsubr
          155 1 102.02000427246094 314 callsubr
          145 hhcurveto
          81 119 callsubr
          -25 -30 42 hvcurveto
          37 205 rlineto
          23 -41 -100 -11 callgsubr
          -113 hhcurveto
          endchar
        </CharString>
        <CharString name="currency">
          189 251.99000549316406 222 432 222 -33.97001647949219 -62 callgsubr
          341.99000549316406 234 412 233.97999572753906 hintmask 10111000
          1221.979995727539 689.9900054931641 rmoveto
          82 -22 76 -38.99000549316406 65.99000549316406 vhcurveto
          hintmask 11011000
          208 208.02000427246094 -141 141.99000549316406 -207 225 callsubr
          rlineto
          82 callgsubr
          -69 -82 -38 callgsubr
          -88 hhcurveto
          -92 callgsubr
          -78 -23 -40.02000427246094 -38 callsubr
          hvcurveto
          hintmask 10111000
          -210.99000549316406 212 -141 -142 210 -209.99000549316406 rlineto
          -44 -38 callsubr
          168 callsubr
          -81 -87 vvcurveto
          -88 25.990005493164062 -82 120 callgsubr
          -68 vhcurveto
          -209.02000427246094 -209 142 -141 211 211 rlineto
          -39.02000427246094 65.99000549316406 77 -22 82 hhcurveto
          84.99000549316406 1 callsubr
          24 42 -48 callgsubr
          hvcurveto
          211 -211 142 141 -211 211 rlineto
          42 -48 callgsubr
          23.990005493164062 318 callsubr
          85 vvcurveto
          -440 -216 rmoveto
          -113.99000549316406 -92 98 118 hvcurveto
          hintmask 11011000
          118 92 98 113.99000549316406 114.02000427246094 92 -98 -118 vhcurveto
          hintmask 10111000
          -118 -92 -98 -114.02000427246094 vhcurveto
          endchar
        </CharString>
        <CharString name="d">
          -77 8 callsubr
          -46.96000671386719 257 callsubr
          hintmask 10101000
          919.9799957275391 1634 rmoveto
          hintmask 10011000
          232 callsubr
          hintmask 10101000
          -88 callsubr
          hintmask 01101000
          -4 callsubr
          hintmask 10101000
          -344 hlineto
          -389 -1406.020004272461 -78 callsubr
        </CharString>
        <CharString name="dagger">
          -536 1062.990005493164 213.99000549316406 hstemhm
          353.97999572753906 314 callgsubr
          hintmask 00000000
          hintmask 11000000
          345.99000549316406 943.9799957275391 rmoveto
          -101 -792.9900054931641 rlineto
          217 hlineto
          133 792.9900054931641 16 134 callsubr
          rlineto
          241 hlineto
          33 214 rlineto
          223 callgsubr
          hlineto
          41 253 callsubr
          -250 hlineto
          -34.02000427246094 -214 rlineto
          239 hlineto
          -16 87 callsubr
          rlineto
          endchar
        </CharString>
        <CharString name="daggerdbl">
          -536 576 202.99000549316406 284 213.99000549316406 hstemhm
          248.47999572753906 272.99000549316406 -167.49000549316406 314 callgsubr
          hintmask 00000000
          hintmask 11100000
          258.99000549316406 339.99000549316406 rmoveto
          -21 -390.97999572753906 rlineto
          197 callgsubr
          hlineto
          100 402.97999572753906 23 224.02000427246094 rlineto
          264 hlineto
          28 203 rlineto
          hintmask 11010000
          -258.00999450683594 hlineto
          28 164.99000549316406 16 134 callsubr
          rlineto
          241 hlineto
          33 214 rlineto
          -250.99000549316406 hlineto
          39 253 callsubr
          -249.02000427246094 hlineto
          84 callgsubr
          -214 rlineto
          140 callgsubr
          hlineto
          -16 87 callsubr
          rlineto
          hintmask 11100000
          75 callgsubr
          -164.99000549316406 rlineto
          -236 hlineto
          74 callsubr
          -203 rlineto
          268 callsubr
          hlineto
          -40 -236.02000427246094 rlineto
          endchar
        </CharString>
        <CharString name="dcaron">
          249 8 callsubr
          -72 callgsubr
          982.9900054931641 262.97999572753906 hintmask 10111000
          1648.990005493164 1681.979995727539 rmoveto
          -229 -47.99000549316406 -18.990005493164062 -42 rlineto
          101 callsubr
          -30 4.0200042724609375 219 callgsubr
          6 -25 151 -28 rlineto
          111 callsubr
          196 callsubr
          51 199 156 vvcurveto
          80 322 callsubr
          82 1 callgsubr
          27 vhcurveto
          -796 -531.9900054931641 rmoveto
          -88 callsubr
          hintmask 01111000
          -4 callsubr
          -344 hlineto
          hintmask 10111000
          232 callsubr
          -322.00999450683594 -922.0099945068359 -78 callsubr
        </CharString>
        <CharString name="dcroat">
          -77 8 callsubr
          -46.96000671386719 -104 callsubr
          112 -48 callsubr
          -72 callgsubr
          hintmask 10101100
          1399.990005493164 1391.979995727539 rmoveto
          -167 hlineto
          -24 callgsubr
          242.02000427246094 rlineto
          -344 hlineto
          -33 244 callsubr
          rlineto
          -229 hlineto
          -16 276 callgsubr
          rlineto
          227 hlineto
          hintmask 10011100
          -16 -112 rlineto
          hintmask 10101100
          -88 callsubr
          hintmask 01101100
          -15.009994506835938 -279 rlineto
          319.02000427246094 hlineto
          163 1262 rlineto
          168 hlineto
          hintmask 10101100
          16 -48 callsubr
          rlineto
          -869.0099945068359 -1164 -78 callsubr
        </CharString>
        <CharString name="degree">
          -394 914.9799957275391 185.99000549316406 348.00999450683594 185.00999450683594 hstem
          56 callsubr
          204 328 204 vstem
          56 callsubr
          1274.979995727539 rmoveto
          -198 -4 269 callsubr
          -162 206 hhcurveto
          216 162 154 56 callsubr
          3 hvcurveto
          198 4 -156 161.02000427246094 -207.02000427246094 hhcurveto
          -215 -158.99000549316406 -155.02000427246094 -204 -3 hvcurveto
          532.0099945068359 1 rmoveto
          -100 -1 -71 -75 -10 callgsubr
          hhcurveto
          272 callsubr
          -71 79.02000427246094 111 callsubr
          2 hvcurveto
          99 1 70 74 111 callsubr
          hhcurveto
          91.02000427246094 -36 callsubr
          -76.99000549316406 82 callsubr
          -35 callgsubr
          endchar
        </CharString>
        <CharString name="dieresis">
          -534 1337.990005493164 248 callsubr
          hstem
          -7 198 callgsubr
          135 339 vstem
          -7 1504.990005493164 rmoveto
          147 callgsubr
          80 hhcurveto
          130 57 50 callgsubr
          80 2 -28 callsubr
          -69 -87 -109 -2 hvcurveto
          473.97999572753906 hmoveto
          -83 -91 callgsubr
          233 callgsubr
          22 callsubr
          endchar
        </CharString>
        <CharString name="dieresis.cap">
          -537 1631.979995727539 363 hstem
          197 callgsubr
          339 134.989990234375 339 vstem
          197 callgsubr
          296 callgsubr
          72.00999450683594 -61 callgsubr
          80 hhcurveto
          -44 callsubr
          473.99000549316406 hmoveto
          229 callsubr
          91 callsubr
          endchar
        </CharString>
        <CharString name="divide">
          46 -2 callgsubr
          367 142.989990234375 264 138 367 hstemhm
          491.99000549316406 369 -257 368.97999572753906 hintmask 00000000
          hintmask 01101000
          604 1206.990005493164 rmoveto
          -89 59 -63 97 129 -34 callsubr
          87 131 80 246 callgsubr
          69 -118 -129 109 callsubr
          -103 -112 vhcurveto
          -344 -288.99000549316406 rmoveto
          -36 -265.02000427246094 rlineto
          962.0099945068359 hlineto
          34 263 -960 2 rlineto
          hintmask 11010000
          232 -623 rmoveto
          -89 59 -63 97 129 84 87 130.99000549316406 1 callsubr
          -43 69 -118 -129 109 callsubr
          -103 -112 vhcurveto
          endchar
        </CharString>
        <CharString name="dollar">
          -147 -275 536 -271 43 1233.990005493164 525.9799957275391 -290.95001220703125 -62 callgsubr
          52 callgsubr
          328.99000549316406 132.00999450683594 356.97999572753906 hintmask 01011100
          753.9900054931641 881.9900054931641 rmoveto
          hintmask 01101100
          -141 272 callgsubr
          -60 52.02000427246094 148 callgsubr
          vvcurveto
          71 65 54 122 98 128 -41 -46 46.02000427246094 vhcurveto
          hintmask 01011100
          107.99000549316406 280.97999572753906 151 callgsubr
          31 -89 39 -130 12 rlinecurve
          hintmask 10101100
          42 250 rlineto
          -240 hlineto
          119 callgsubr
          -262.97999572753906 -236 -50 -159 -161 5 -228 rlinecurve
          4 -196 141 -142 124 -93 rrcurveto
          145 -106 47 -65 -87.99000549316406 vvcurveto
          -88 -64 -52 -151 -17 callsubr
          -118 49.99000549316406 49 -64 vhcurveto
          hintmask 01011100
          -115 -282.00999450683594 38 -30 146.99000549316406 246 callgsubr
          137 74 callgsubr
          rlinecurve
          hintmask 10011100
          -48 -265.02000427246094 rlineto
          240 hlineto
          48.99000549316406 270.00999450683594 259.00999450683594 39.970001220703125 152 154 211 callgsubr
          263 rlinecurve
          hintmask 01011100
          -76 callgsubr
          203 -165 136 -119.99000549316406 91 rrcurveto
          endchar
        </CharString>
        <CharString name="dong">
          39 192.97999572753906 98 957 132 callsubr
          337.02000427246094 43 hstem
          47.97999572753906 1420 vstem
          1081 252 callgsubr
          rmoveto
          -241 hlineto
          74 callgsubr
          -3 14.009994506835938 12 hvcurveto
          4 1 4.0200042724609375 2.9900054931640625 vvcurveto
          1 6 49.99000549316406 3.0200042724609375 21.009994506835938 vhcurveto
          -40 -48 272 callsubr
          -69.02000427246094 -180.97999572753906 hhcurveto
          -198 -157 114.02000427246094 268 callsubr
          363 250 239 343.99000549316406 1 callsubr
          52 -11 -11 35 hvcurveto
          131 callsubr
          130.99000549316406 rlineto
          -264.99000549316406 hlineto
          23 164 rlineto
          265.99000549316406 hlineto
          25.009994506835938 173 rlineto
          297 hlineto
          -25 -173 rlineto
          214 hlineto
          -23 -164 rlineto
          -214 hlineto
          -150 -1066 rlineto
          -621.0200042724609 392.00999450683594 rmoveto
          -124.99000549316406 62 -52 80 136.99000549316406 55 48.99000549316406 19 27 vhcurveto
          60 431 rlineto
          13.990005493164062 -14.009994506835938 -34.970001220703125 23 -103.02000427246094 hhcurveto
          -184 223 callsubr
          -163 -196 hvcurveto
          673.0099945068359 -682.9900054931641 rmoveto
          -1085.009994506836 hlineto
          227 callgsubr
          192.97999572753906 rlineto
          1084.990005493164 hlineto
          -27 -192.97999572753906 rlineto
          endchar
        </CharString>
        <CharString name="dotaccent">
          -959 1312.990005493164 368 hstem
          248 callgsubr
          152 callgsubr
          vstem
          248 callgsubr
          194 callsubr
          -1.9799957275390625 80.99000549316406 -74 208 callsubr
          167 callgsubr
          -47 callgsubr
          9 callgsubr
          -123.99000549316406 -84 72 callgsubr
          endchar
        </CharString>
        <CharString name="dotaccent.cap">
          -958 1611.979995727539 363 hstem
          -3.9900054931640625 317 callsubr
          vstem
          -3.9900054931640625 1779 rmoveto
          -93 -2 142 callsubr
          -26 callsubr
          -91 callgsubr
          hvcurveto
          endchar
        </CharString>
        <CharString name="dotlessi">
          -46 callsubr
          hstem
          212 callgsubr
          320 callsubr
          vstem
          140 callgsubr
          1140 -95 callsubr
          endchar
        </CharString>
        <CharString name="e">
          -59 callsubr
          715.9799957275391 1155.990005493164 -107 callsubr
        </CharString>
        <CharString name="eacute">
          -59 callsubr
          585.9900054931641 1324.990005493164 rmoveto
          247 callsubr
          -99 121.02000427246094 46 262 234 35.99000549316406 68 rlinecurve
          307 callsubr
          rlineto
          -48 callsubr
          -169 -107 callsubr
        </CharString>
        <CharString name="ebreve">
          -239 243 callsubr
          734 -27 callsubr
          143.989990234375 217 hstemhm
          -47 callgsubr
          83 callgsubr
          -28.000015258789062 -27 callsubr
          100.00999450683594 344 -136.989990234375 309 callsubr
          hintmask 11101010
          415.99000549316406 1595.990005493164 96 callsubr
          255 109.02000427246094 182 callsubr
          vhcurveto
          -184 45 callsubr
          hintmask 11110100
          300 -440 -107 callsubr
        </CharString>
        <CharString name="ecaron">
          -59 callsubr
          401.97999572753906 187 callgsubr
          155 callsubr
          372 374 3 callgsubr
          227 callsubr
          6 callgsubr
          -213 134 callgsubr
          -126.00999450683594 -68 rlineto
          314 -476 -107 callsubr
        </CharString>
        <CharString name="ecircumflex">
          -59 callsubr
          343.97999572753906 20 callsubr
          372 -140 -107 callsubr
        </CharString>
        <CharString name="edieresis">
          -239 243 callsubr
          734 -27 callsubr
          182 248 callsubr
          hstemhm
          -47 callgsubr
          83 callgsubr
          -107.99000549316406 198 callgsubr
          37.00999450683594 344 -246 339 hintmask 00000000
          hintmask 11101010
          335.99000549316406 1504.990005493164 rmoveto
          279 callsubr
          130 57 50 callgsubr
          80 2 -28 callsubr
          -69.02000427246094 205 callgsubr
          473.99000549316406 hmoveto
          -83 -91 callgsubr
          233 callgsubr
          22 callsubr
          hintmask 11110100
          -94 -349 -107 callsubr
        </CharString>
        <CharString name="edotaccent">
          -239 243 callsubr
          734 -27 callsubr
          321 callsubr
          -47 callgsubr
          83 callgsubr
          116.99998474121094 152 callgsubr
          -236.00999450683594 344 hintmask 00000000
          hintmask 11111000
          560.9900054931641 230 callsubr
          287 callgsubr
          -74 208 callsubr
          143 -12 callsubr
          91 111 2 hvcurveto
          -55 callgsubr
          hintmask 11110100
          155 -324 -107 callsubr
        </CharString>
        <CharString name="egrave">
          -59 callsubr
          274.97999572753906 1573.990005493164 rmoveto
          98 callgsubr
          124 99 rcurveline
          88 callsubr
          310 callsubr
          441 -418 -107 callsubr
        </CharString>
        <CharString name="eight">
          39 -20 216 1143.979995727539 111 callgsubr
          hstemhm
          312 callsubr
          334.99000549316406 -140.00001525878906 328 212.010009765625 352.99000549316406 -235.00001525878906 310 hintmask 00000000
          hintmask 11010100
          496.99000549316406 769.9900054931641 rmoveto
          hintmask 11101000
          -189.99000549316406 -59 -182 249 callsubr
          1 -235 rrcurveto
          -234.99000549316406 1 216 -135 295 hhcurveto
          328.99000549316406 247 157 265.99000549316406 179 249 callsubr
          126.00999450683594 290 callsubr
          105 hvcurveto
          hintmask 11010100
          172 62 162 105 230 vvcurveto
          202 -195 136.99000549316406 -267 -303 -203 -164 -273.97999572753906 -144.02000427246094 318 callsubr
          -106.99000549316406 97 312 callgsubr
          vhcurveto
          482 410.00999450683594 rmoveto
          -128 -71.99000549316406 -81 223 callsubr
          -57.02000427246094 vhcurveto
          -97 75.02000427246094 -76 69.97999572753906 287 callgsubr
          vvcurveto
          116.99000549316406 55 83 106.99000549316406 85.02000427246094 52 callsubr
          -56 -104 vhcurveto
          hintmask 11101000
          -302 -984 rmoveto
          -105 -111 85 117 136 75 150 callsubr
          87 57 hvcurveto
          123 -10 callgsubr
          246 callsubr
          -85.02000427246094 -110 vvcurveto
          -106.99000549316406 -69.02000427246094 -71 -115 vhcurveto
          endchar
        </CharString>
        <CharString name="ellipsis">
          227 279 callgsubr
          157.010009765625 369 157 368.97999572753906 hintmask 00000000
          hintmask 11110000
          22 callgsubr
          525.9900054931641 hmoveto
          -129 -78.99000549316406 -44 callgsubr
          526 hmoveto
          -129 -79 -103 -112 -41 callsubr
          58.99000549316406 -62.99000549316406 167 callsubr
          129 -34 callsubr
          86.99000549316406 130.99000549316406 80 246 callgsubr
          69 -118.00999450683594 hvcurveto
          endchar
        </CharString>
        <CharString name="emacron">
          -239 243 callsubr
          734 -27 callsubr
          239 67 callgsubr
          hstem
          -47 callgsubr
          83 callgsubr
          267.99998474121094 344 vstem
          443.99000549316406 206 callgsubr
          264 callgsubr
          597.0200042724609 hlineto
          18 67 callgsubr
          rlineto
          -597.0099945068359 hlineto
          272 -458 -107 callsubr
        </CharString>
        <CharString name="emdash">
          680 129 callgsubr
          1609.009994506836 85 callgsubr
          1572 hlineto
          37 234 callgsubr
          -1572 hlineto
          endchar
        </CharString>
        <CharString name="endash">
          187 129 callgsubr
          1136 85 callgsubr
          1099 hlineto
          37 234 callgsubr
          -1099 hlineto
          endchar
        </CharString>
        <CharString name="eng">
          -29 -527.9900054931641 146 381.99000549316406 -46 callgsubr
          hstemhm
          834.9900054931641 83 callgsubr
          hintmask 11001100
          216 callsubr
          hintmask 11010100
          -54 callsubr
          hintmask 11100100
          115 callgsubr
          -8.009994506835938 -164 -58 -400 84 callgsubr
          209 callsubr
          rrcurveto
          -253 -36 -54 275 callgsubr
          -154.99000549316406 hhcurveto
          -11 -45 4 8 -18 hvcurveto
          -38 -121.02000427246094 rlineto
          -23.990005493164062 22 101 -13 73.02000427246094 hhcurveto
          297.97999572753906 147 111 callsubr
          432 73 hvcurveto
          38 226.97999572753906 74 527.0200042724609 100 vvcurveto
          hintmask 11001100
          52 callgsubr
          -105 78 -56 callgsubr
          vhcurveto
          endchar
        </CharString>
        <CharString name="eogonek">
          -239 7 callsubr
          450.989990234375 110 callgsubr
          734 -27 callsubr
          hstemhm
          -47 callgsubr
          83 callgsubr
          -169.00001525878906 281 156 344 hintmask 01111010
          593.9799957275391 69 callgsubr
          -236 -359 -284 -299 -414.99000549316406 -237.02000427246094 124 -220.97000122070312 309 vhcurveto
          225 callgsubr
          hlineto
          hintmask 01110110
          -99 -53 -144 -118 -129 146 callsubr
          287 callsubr
          40 83 81 vhcurveto
          hintmask 10110110
          65 callgsubr
          63 147 132.02000427246094 118.99000549316406 -47 callgsubr
          hvcurveto
          92 48.99000549316406 64 62.02000427246094 31 82 callgsubr
          -92 171 rcurveline
          hintmask 01111010
          -65 -49 178 callsubr
          -98 152 callsubr
          hhcurveto
          43 734 rmoveto
          53 22 -31.009994506835938 -70 -161 -150 -130 -118 -7 hvcurveto
          140 3 63 259.02000427246094 127 hhcurveto
          endchar
        </CharString>
        <CharString name="equal">
          -266 314.97999572753906 201 callsubr
          197.97999572753906 1055.990005493164 rmoveto
          -36.99000549316406 -247.99000549316406 rlineto
          839.9900054931641 hlineto
          37 100 callsubr
          rlineto
          -840 hlineto
          180 callsubr
          -492.99000549316406 rmoveto
          -37 -248.02000427246094 rlineto
          840.0099945068359 hlineto
          37 234 callgsubr
          -840 hlineto
          endchar
        </CharString>
        <CharString name="estimated">
          91 -94 callsubr
          197 callsubr
          464.99000549316406 156.00999450683594 424.99000549316406 163 hstem
          53 callgsubr
          375 454 361.97999572753906 vstem
          1305.990005493164 611.9799957275391 rmoveto
          10 320 callgsubr
          0 82.99000549316406 86.02000427246094 vvcurveto
          -10 328.99000549316406 -239 200 -302 -5.0200042724609375 rrcurveto
          -435 -6.9900054931640625 -205 -286 -392 vvcurveto
          -430 239 -256.97999572753906 407 199 181 69.97999572753906 61 88 vhcurveto
          99 callsubr
          151 rlineto
          -55 -72 -145 -64 -169 hhcurveto
          -106.99000549316406 -98 21.020004272460938 53.99000549316406 -75 hvcurveto
          390 805.9900054931641 vlineto
          -351.99000549316406 541 rmoveto
          -384.97999572753906 -454 352.99000549316406 vlineto
          49.99000549316406 65.99000549316406 73 callgsubr
          22 99.99000549316406 hhcurveto
          87 66 -15 -25 50 hvcurveto
          endchar
        </CharString>
        <CharString name="eth">
          -139 -94 callsubr
          197.97999572753906 793.0000152587891 182.99000549316406 476.99998474121094 43 hstem
          65.99000549316406 374 340.989990234375 365.02000427246094 vstem
          863.9900054931641 1565.979995727539 rmoveto
          141 callgsubr
          140 -118 246 callsubr
          rlineto
          0 -70 -81.02000427246094 -64 -70.99000549316406 vhcurveto
          -94 65.99000549316406 -105 320 callgsubr
          -110 28 -60 -179.02000427246094 rcurveline
          94 171 callsubr
          69 -41 64 -57 -16 callsubr
          -121 rcurveline
          312 callsubr
          -114.00999450683594 102.02000427246094 43 callsubr
          47.97999572753906 -70 120 callgsubr
          -61 callgsubr
          5 -123.99000549316406 rlinecurve
          28 -31 -56 -9 callsubr
          -94 hhcurveto
          -336 -219 -277 -458 -214 143 -224.99000549316406 307 419 211 356.97999572753906 461 262.97999572753906 -75.02000427246094 298 -207 203 hvcurveto
          -83 -697 rmoveto
          -52 -17 -205 -10 -39 callsubr
          vhcurveto
          -205 -27 -82 -164 -99 hhcurveto
          -69 -37 101 128 100 callsubr
          63 316.00999450683594 137.02000427246094 86 58 -59 -47 -3 hvcurveto
          endchar
        </CharString>
        <CharString name="exclam">
          -665 -29 43 -43 271 callsubr
          hstemhm
          148 callgsubr
          369 -369 607 hintmask 10010000
          174 callgsubr
          hintmask 01100000
          -34.02000427246094 -1440.009994506836 rmoveto
          275 callgsubr
          -79.00999450683594 -44 callgsubr
          endchar
        </CharString>
</ttFont>
